<?xml version="1.0" encoding="UTF-8" standalone="no"?>
<!-- Created with Inkscape (http://www.inkscape.org/) -->

<svg
   xmlns:osb="http://www.openswatchbook.org/uri/2009/osb"
   xmlns:dc="http://purl.org/dc/elements/1.1/"
   xmlns:cc="http://creativecommons.org/ns#"
   xmlns:rdf="http://www.w3.org/1999/02/22-rdf-syntax-ns#"
   xmlns:svg="http://www.w3.org/2000/svg"
   xmlns="http://www.w3.org/2000/svg"
   xmlns:sodipodi="http://sodipodi.sourceforge.net/DTD/sodipodi-0.dtd"
   xmlns:inkscape="http://www.inkscape.org/namespaces/inkscape"
   width="1052.3622"
   height="744.09448"
   id="svg2"
   version="1.1"
   inkscape:version="0.48.4 r9939"
   sodipodi:docname="New document 1">
  <defs
     id="defs4">
    <linearGradient
       id="linearGradient5296"
       osb:paint="solid">
      <stop
         style="stop-color:#ffffff;stop-opacity:1;"
         offset="0"
         id="stop5298" />
    </linearGradient>
    <inkscape:perspective
       sodipodi:type="inkscape:persp3d"
       inkscape:vp_x="0 : 372.04724 : 1"
       inkscape:vp_y="0 : 1000 : 0"
       inkscape:vp_z="1052.3622 : 372.04724 : 1"
       inkscape:persp3d-origin="526.18109 : 248.03149 : 1"
       id="perspective3788" />
  </defs>
  <sodipodi:namedview
     id="base"
     pagecolor="#ffffff"
     bordercolor="#666666"
     borderopacity="1.0"
     inkscape:pageopacity="0.0"
     inkscape:pageshadow="2"
     inkscape:zoom="0.98994949"
     inkscape:cx="506.79895"
     inkscape:cy="368.86099"
     inkscape:document-units="px"
     inkscape:current-layer="layer1"
     showgrid="false"
     inkscape:window-width="1916"
     inkscape:window-height="1060"
     inkscape:window-x="0"
     inkscape:window-y="18"
     inkscape:window-maximized="0" />
  <metadata
     id="metadata7">
    <rdf:RDF>
      <cc:Work
         rdf:about="">
        <dc:format>image/svg+xml</dc:format>
        <dc:type
           rdf:resource="http://purl.org/dc/dcmitype/StillImage" />
        <dc:title></dc:title>
      </cc:Work>
    </rdf:RDF>
  </metadata>
  <g
     inkscape:label="Layer 1"
     inkscape:groupmode="layer"
     id="layer1"
     transform="translate(0,-308.2677)"
     style="display:inline">
    <rect
       style="fill:#1cb6ed;fill-opacity:1;fill-rule:evenodd;stroke:none;opacity:1"
       id="rect2985"
       width="1059.4172"
       height="742.08582"
       x="-0.38868362"
       y="0.72373486"
       transform="translate(0,308.2677)"
       ry="0" />
    <path
       style="fill:#ffffff;fill-opacity:1;stroke:none"
       d="m 246.15526,395.76303 c -3.70926,-0.0365 -7.14328,0.8048 -8.50279,-4.04061 -17.46803,-62.25736 34.16318,-7.99092 37.41228,-6.06092 5.05448,3.00243 13.55521,-21.2132 20.4067,-21.2132 8.42687,0 9.46836,26.70056 17.00558,22.22336 16.83058,-9.99757 37.97404,-20.03621 57.81899,-14.14214 8.69971,2.58387 16.27838,22.94106 12.75419,31.31473 -1.09037,2.59076 2.07066,-5.77569 4.25139,-7.07107 9.97856,-5.92739 29.58336,-0.13972 37.41228,6.06092 12.77912,10.12127 9.47985,35.35534 -7.65251,35.35534 -2.40496,0 4.63002,3.25925 5.10167,6.06091 2.19928,13.06396 5.38411,22.56245 0,35.35534 -18.15886,43.14634 -64.13507,-34.56149 -48.46591,-25.25381 6.02359,3.57809 0.19532,42.4264 -9.35307,42.4264 -29.83574,0 -52.59726,-42.4264 -37.41228,-42.4264 1.74724,0 0.85028,11.0664 0.85028,11.11167 0,35.78162 -43.88774,82.21059 -70.57317,50.50763 -18.76612,-22.2946 -17.20691,-46.70619 -17.00558,-46.46702 15.48856,18.40081 -21.78962,33.83436 -32.31061,-16.16244 -7.58874,-36.0624 27.82062,-35.86946 38.26256,-57.57869 z"
       id="path3842"
       inkscape:connector-curvature="0" />
    <path
       style="fill:#ffffff;fill-opacity:1;stroke:none"
       d="m 409.11179,608.90522 c -20.64566,14.924 -44.2619,-34.98887 -30.30458,-45.45686 28.51232,-21.38424 64.81403,18.18274 50.50763,18.18274 -9.90316,0 8.93267,-18.75037 17.1726,-24.24366 20.85598,-13.90399 74.95046,12.22142 92.93403,21.2132 18.02634,9.01317 66.67007,-50.60152 66.67007,2.02031 0,19.73651 -42.97549,20.75213 -41.41626,19.1929 22.59965,-22.59965 78.75465,13.65568 43.43656,31.31473 -19.55207,9.77603 -63.39137,11.61388 -80.8122,0 -5.55391,-3.70261 -28.073,-32.72433 -13.13198,-25.25382 25.5675,12.78375 -27.94985,69.35922 -43.43656,38.3858 -4.28307,-8.56614 -11.82289,-35.0564 -5.05077,-28.28427 21.87862,21.87861 -31.52916,93.08643 -56.56854,-7.07107 z"
       id="path3844"
       inkscape:connector-curvature="0" />
    <path
       style="fill:#ffffff;fill-opacity:1;stroke:none"
       d="m 54.548245,784.67175 c -35.883592,10.71546 -34.210032,-68.75796 -12.12184,-79.80205 38.3081,-19.15405 44.42682,42.93646 46.46702,42.42641 12.867255,-3.21682 18.723705,-27.03953 31.314725,-33.33504 15.44116,-7.72058 54.79559,-9.22541 65.65992,7.07107 3.38242,5.07363 11.06095,21.36537 9.09137,27.27412 -2.19513,6.58539 -18.04044,11.25398 -13.13198,16.16244 2.21705,2.21705 129.60286,-24.7502 118.18784,32.32488 -1.46535,7.32678 -17.32644,7.38166 -22.22335,8.08122 -18.72332,2.67476 -38.02736,9.97118 -57.5787,6.06092 -9.94892,-1.98979 -18.65308,-20.67339 -13.13198,-15.15229 21.65098,21.65098 -2.289,66.61633 -32.32488,60.60915 -14.40543,-2.88109 -28.82533,-52.52793 -29.29443,-52.52793 -1.05667,0 2.54464,98.75204 -49.497465,72.73098 -29.75264,-14.87632 -22.44565,-65.36504 -41.41625,-91.92388 z"
       id="path5314"
       inkscape:connector-curvature="0" />
    <path
       style="fill:#ffffff;fill-opacity:1;stroke:none"
       d="m 667.71084,874.57533 c -45.17859,34.95288 -114.94467,-43.33031 -83.84266,-86.87312 31.67614,-44.34659 70.64322,35.35534 55.55839,35.35534 -13.7911,0 24.07636,-58.6725 50.50762,-45.45686 9.92046,4.96023 16.1062,39.71392 6.06092,36.36549 -8.85868,-2.95289 26.9228,-43.43656 37.37564,-43.43656 19.6607,0 44.46284,47.47717 21.21321,47.47717 -9.92665,0 53.81612,-43.23253 62.62946,27.27412 2.08637,16.69097 -1.56855,28.28427 -20.20306,28.28427 -6.94161,0 18.51947,-1.68359 20.20306,5.05076 3.00017,12.0007 -0.12241,24.49466 -12.12184,29.29443 -41.96483,16.78593 -68.03789,-7.07107 -62.62945,-7.07107 19.28153,0 -9.26437,33.1676 -35.35534,38.3858 -15.92859,3.18571 -16.16244,-7.1938 -16.16244,-20.20306 0,-5.13977 -3.48407,10.83341 -8.08122,13.13199 -8.70533,4.35266 -24.5967,6.47773 -34.34519,4.04061 -8.6981,-2.17453 -15.15229,-31.18915 -15.15229,-22.22336 0,73.33234 -65.01798,3.03046 -45.45686,3.03046 3.76605,0 -13.94891,18.52657 -29.29443,14.14213 -20.83536,-5.95296 -27.45601,-49.40652 -7.07106,-59.599 33.25191,-16.62595 101.52185,8.52259 116.16754,3.03046 z"
       id="path5316"
       inkscape:connector-curvature="0" />
    <path
       style="fill:#ffffff;fill-opacity:1;stroke:none"
       d="m 759.63471,548.29606 c 0,-11.78511 0,-23.57022 0,-35.35534 0,-48.74466 33.60408,8.63351 36.36549,8.08122 9.36524,-1.87304 17.6619,-14.33786 27.27412,-18.18274 4.99516,-1.99807 26.64164,-9.84974 32.32488,-6.06092 3.79834,2.53223 6.88991,19.28348 9.09137,18.18275 23.97049,-11.98524 55.46291,-28.23595 84.85282,-19.1929 13.63848,4.19646 42.62137,47.80211 48.48735,57.5787 5.14486,8.57493 -21.21323,31.2132 -21.21323,21.2132 0,-8.52501 11.6656,21.44132 4.04061,25.25381 -1.99799,0.999 -118.82854,20.73452 -126.26907,20.20306 -38.16185,-2.72585 6.00396,-22.85583 -25.25382,-17.1726 -10.72227,1.94951 -38.76649,3.65992 -47.47716,-5.05076 -4.25918,-4.25918 -8.08123,-22.18583 -8.08123,-16.16244 0,29.39315 -89.4864,9.71883 -14.14213,-33.33504 z"
       id="path5320"
       inkscape:connector-curvature="0" />
  </g>
</svg>
