<?xml version="1.0" encoding="UTF-8" standalone="no"?>
<!-- Created with Inkscape (http://www.inkscape.org/) -->

<svg
   xmlns:osb="http://www.openswatchbook.org/uri/2009/osb"
   xmlns:dc="http://purl.org/dc/elements/1.1/"
   xmlns:cc="http://creativecommons.org/ns#"
   xmlns:rdf="http://www.w3.org/1999/02/22-rdf-syntax-ns#"
   xmlns:svg="http://www.w3.org/2000/svg"
   xmlns="http://www.w3.org/2000/svg"
   xmlns:sodipodi="http://sodipodi.sourceforge.net/DTD/sodipodi-0.dtd"
   xmlns:inkscape="http://www.inkscape.org/namespaces/inkscape"
   width="744.09448819"
   height="1052.3622047"
   id="svg2"
   version="1.1"
   inkscape:version="0.48.4 r9939"
   sodipodi:docname="soil.svg"
   inkscape:export-filename="/home/susu/github-projects/mineclimber.git/assets/soil.png"
   inkscape:export-xdpi="90"
   inkscape:export-ydpi="90">
  <defs
     id="defs4">
    <linearGradient
       id="linearGradient5219"
       osb:paint="solid">
      <stop
         style="stop-color:#000000;stop-opacity:1;"
         offset="0"
         id="stop5221" />
    </linearGradient>
    <inkscape:path-effect
       effect="skeletal"
       id="path-effect3771"
       is_visible="true"
       pattern="M 0,5 C 0,2.24 2.24,0 5,0 7.76,0 10,2.24 10,5 10,7.76 7.76,10 5,10 2.24,10 0,7.76 0,5 z"
       copytype="single_stretched"
       prop_scale="1"
       scale_y_rel="false"
       spacing="0"
       normal_offset="0"
       tang_offset="0"
       prop_units="false"
       vertical_pattern="false"
       fuse_tolerance="0" />
  </defs>
  <sodipodi:namedview
     id="base"
     pagecolor="#ffffff"
     bordercolor="#666666"
     borderopacity="1.0"
     inkscape:pageopacity="0.0"
     inkscape:pageshadow="2"
     inkscape:zoom="1.4"
     inkscape:cx="214.10639"
     inkscape:cy="728.02984"
     inkscape:document-units="px"
     inkscape:current-layer="layer1"
     showgrid="false"
     inkscape:window-width="1916"
     inkscape:window-height="1060"
     inkscape:window-x="0"
     inkscape:window-y="18"
     inkscape:window-maximized="0" />
  <metadata
     id="metadata7">
    <rdf:RDF>
      <cc:Work
         rdf:about="">
        <dc:format>image/svg+xml</dc:format>
        <dc:type
           rdf:resource="http://purl.org/dc/dcmitype/StillImage" />
        <dc:title></dc:title>
      </cc:Work>
    </rdf:RDF>
  </metadata>
  <g
     inkscape:label="Layer 1"
     inkscape:groupmode="layer"
     id="layer1">
    <rect
       style="fill:#552200;fill-opacity:1;fill-rule:evenodd;stroke:none"
       id="rect2985"
       width="200"
       height="200"
       x="170"
       y="223.79076" />
    <path
       style="fill:#381a07;fill-opacity:1;fill-rule:evenodd;stroke:#451a03;stroke-width:2;stroke-linejoin:miter;stroke-miterlimit:4;stroke-opacity:1;stroke-dasharray:none;stroke-dashoffset:0;opacity:1"
       id="path5343"
       d="m 221.39479,304.47896 c 2.21061,1.87235 2.77212,2.8391 5.50174,3.54807 0.91849,0.23856 1.89333,0.15653 2.83029,0.30698 1.38994,0.22319 3.46327,0.7777 4.6284,1.53552 0.78528,0.51076 1.37542,1.27215 2.06314,1.90822 0.72046,0.57305 1.57791,1.00711 2.16138,1.71917 0.35515,0.43343 1.05237,1.83545 0.54919,1.58883 -0.71908,-0.35244 -0.85949,-1.35474 -1.35505,-1.9838 -0.0788,-0.10009 0.16405,0.47304 0.0857,0.37252 -0.35787,-0.45932 -1.52245,-1.51442 -0.94177,-1.47122 0.61117,0.0455 0.72534,0.98807 1.08802,1.4821 0.27837,0.39758 0.51611,0.82694 0.83511,1.19273 0.11367,0.13034 0.48096,0.44023 0.44202,0.27172 -0.11219,-0.48545 -0.40287,-0.91805 -0.68612,-1.32795 -0.30217,-0.43731 -0.43542,-0.12437 -0.30521,0.0855 0.15888,0.25608 0.37148,0.47464 0.55722,0.71196 0.52656,0.16085 1.05313,0.32169 1.57969,0.48254 9.26542,1.70215 6.85821,14.80543 -2.4072,13.10327 l 0,0 c -0.81006,0.12521 -1.62011,0.25042 -2.43016,0.37562 -0.74639,-0.36785 -1.46657,-0.79451 -2.23916,-1.10357 -0.61773,-0.24712 -1.29749,-0.31401 -1.91618,-0.55872 -0.55039,-0.2177 -4.10093,-2.15619 -4.22085,-2.24889 -0.14056,-0.10866 -0.146,-0.49018 0.0266,-0.53234 0.23289,-0.0569 0.40869,0.25074 0.61303,0.37611 0.23774,0.19815 0.97389,0.76127 0.71321,0.59445 -0.80612,-0.5159 -1.66582,-0.97893 -2.35373,-1.64433 -0.18441,-0.17837 -0.0245,-0.52488 -0.13042,-0.75853 -0.48853,-1.07737 -0.99443,-2.156 -1.64051,-3.14694 -0.0804,-0.12331 -0.1848,0.28015 -0.13767,0.4196 0.15719,0.46502 0.47647,0.85836 0.7147,1.28754 0.61788,0.009 1.238,0.0797 1.85364,0.0264 0.0723,-0.006 -0.0732,-0.12875 -0.12864,-0.1756 -0.44762,-0.3784 -0.85146,-0.83269 -1.37524,-1.09576 -0.83022,-0.41698 -1.82644,-0.45411 -2.63203,-0.91689 -1.09923,-0.63146 -1.85925,-1.79283 -3.01016,-2.3243 -0.96831,-0.44714 -2.10441,-0.34892 -3.15661,-0.52339 -8.18593,-3.4108 -3.36232,-14.98745 4.8236,-11.57665 z"
       inkscape:connector-curvature="0" />
    <path
       style="fill:#381a07;fill-opacity:1;fill-rule:evenodd;stroke:#451a03;stroke-width:2;stroke-linejoin:miter;stroke-miterlimit:4;stroke-opacity:1;stroke-dasharray:none;stroke-dashoffset:0;opacity:1"
       id="path5345"
       d="m 265,313.08929 c 3.58185,1.08922 2.61043,0.99923 6.04747,1.33303 0.49533,0.0481 1.01594,0.22295 1.49111,0.075 0.18232,-0.0568 0.2526,-0.4718 0.0866,-0.56625 -0.73427,-0.41796 -1.162,1.2984 -0.38094,-0.64779 1.53921,-0.82444 2.84577,1.28541 4.32351,1.11101 0.31193,-0.0368 0.38147,-0.67065 0.69382,-0.63759 0.53942,0.0571 0.87766,0.66051 1.38311,0.85738 0.22145,0.0863 0.47451,-0.0276 0.71177,-0.0414 0.50877,0.2597 1.01754,0.5194 1.52631,0.7791 0.60418,-0.75542 0.22569,-0.50163 1.82378,-0.31552 0.0488,0.006 0.0516,0.11242 0.10044,0.10772 0.04,-0.004 0.012,-0.0794 0.0179,-0.1191 10.61167,0.39557 10.05224,15.40273 -0.55942,15.00716 l 0,0 c -0.56467,-0.11166 -1.12376,-0.25663 -1.694,-0.33497 -0.57038,-0.0784 -1.1943,0.096 -1.72197,-0.13432 -0.19737,-0.0861 0.13811,-0.55808 -0.0597,-0.64328 -0.48238,-0.2078 -1.04969,-0.0405 -1.57453,-0.0607 -1.10802,1.21276 -1.37503,-0.1509 -2.04288,-0.26911 -0.34488,-0.061 -0.74047,0.27398 -1.04573,0.10228 -0.19958,-0.11226 -0.74593,-2.35472 0.64731,-0.22995 -2.98852,0.71034 1.35743,-0.10694 -3.4249,-0.49404 -0.70415,-0.057 -1.39986,0.61404 -2.07807,0.41627 -0.62876,-0.18335 -0.8259,-1.03876 -1.35942,-1.41865 -1.25638,-0.89462 -1.56852,-0.63441 -2.91167,-0.4861 -9.46824,0 -9.46824,-13.39011 0,-13.39011 z"
       inkscape:connector-curvature="0" />
    <path
       style="fill:#381a07;fill-opacity:1;fill-rule:evenodd;stroke:#451a03;stroke-width:2;stroke-linejoin:miter;stroke-miterlimit:4;stroke-opacity:1;stroke-dasharray:none;stroke-dashoffset:0;opacity:1"
       id="path5347"
       d="m 304.28571,314.55345 c 0.91645,0.43663 2.24751,1.28831 3.39286,1.08086 0.36869,-0.0668 0.59982,-0.4494 0.89286,-0.6829 0.27256,-0.21718 0.45536,-0.6545 0.80357,-0.66886 1.086,0.72845 0.5489,0.69952 1.5625,0.40299 -0.47081,0.31065 1.57237,0.28963 1.18304,0.45316 -0.8346,0.35055 -1.73441,0.82289 -2.62862,0.68211 -0.39334,-0.0619 0.29356,-0.85314 0.66715,-0.99092 0.92483,-0.34109 1.95849,-0.22572 2.93773,-0.33858 9.82275,-1.89354 12.50062,11.99792 2.67788,13.89146 l 0,0 c 0.37183,0.0399 0.83357,-0.12606 1.11548,0.11965 0.16403,0.14297 -0.12979,0.49103 -0.33634,0.55945 -1.43949,0.47683 -2.95552,0.68033 -4.43328,1.0205 -0.2009,-0.0869 -0.38447,-0.24354 -0.60268,-0.26081 -0.2007,-0.0159 -0.38691,0.11147 -0.58036,0.1672 -0.22321,-0.20975 -0.36334,-0.62841 -0.66964,-0.62926 -0.0442,-1.2e-4 -1.4817,1.12066 -1.69643,1.0431 -0.42758,-0.15445 -0.53742,-0.74752 -0.89286,-1.03096 -1.99861,-1.5938 -1.47218,-1.0761 -3.39286,0.53809 -10.85852,0 -10.85852,-15.35628 0,-15.35628 z"
       inkscape:connector-curvature="0" />
    <path
       style="fill:#381a07;fill-opacity:1;fill-rule:evenodd;stroke:#451a03;stroke-width:2;stroke-linejoin:miter;stroke-miterlimit:4;stroke-opacity:1;stroke-dasharray:none;stroke-dashoffset:0;opacity:1"
       id="path5349"
       d="m 328.92857,311.41091 c 0.98857,-0.65298 1.92002,0.68111 2.85714,0.45372 0.42106,-0.10216 0.60021,-0.64685 0.98215,-0.85141 0.26617,-0.14256 0.98872,0.13352 0.89285,-0.15281 -0.30234,-0.90304 -1.06912,-0.37106 -1.43665,-0.17223 0.5639,-0.12848 1.1278,-0.25695 1.69171,-0.38542 10.59811,-2.01869 13.45297,12.96931 2.85485,14.988 l 0,0 c 0.24726,-0.0199 0.49451,-0.0398 0.74176,-0.0597 -1.72356,0.45782 -1.67839,0.54476 -3.85167,0.50023 -0.30542,-0.006 -0.58753,-0.21667 -0.89285,-0.20662 -0.3392,0.0112 -0.64277,0.26811 -0.98215,0.26832 -0.24624,1.6e-4 -2.83583,-0.65979 -2.85714,-0.66507 -9.69938,0 -9.69938,-13.717 0,-13.717 z"
       inkscape:connector-curvature="0" />
    <path
       style="fill:#381a07;fill-opacity:1;fill-rule:evenodd;stroke:#451a03;stroke-width:2;stroke-linejoin:miter;stroke-miterlimit:4;stroke-opacity:1;stroke-dasharray:none;stroke-dashoffset:0;opacity:1"
       id="path5351"
       d="m 201.29115,313.79566 c 2.09886,0.26187 3.91795,1.41212 5.7416,2.39568 0.7493,0.40412 1.54759,0.73034 2.2429,1.22156 2.03917,1.44063 2.77268,2.52333 4.39449,4.39865 1.75353,2.51977 2.91855,5.28379 3.29753,8.34082 0.11847,0.95564 0.20063,1.925 0.1349,2.88571 -0.18151,2.65294 -0.62929,3.18634 -1.6271,5.54943 -0.34218,-0.80172 -1.18487,2.74747 -1.7855,1.90866 -0.66876,0.96128 -14.26337,-8.49649 -13.5946,-9.45777 l 0,0 c 0.61197,-1.2296 -0.24765,0.16656 -0.3611,0.26482 -0.15516,0.49388 -0.35115,0.97674 -0.46548,1.48163 -0.10999,0.48571 -0.13677,0.98658 -0.20515,1.47987 -0.009,0.29622 0.0296,0.59775 -0.0269,0.88867 -0.0317,0.16312 -0.0814,0.37004 -0.23141,0.44151 -0.41026,0.19549 -1.61471,-0.66422 -1.63044,-0.67309 -1.05445,-0.7582 -2.38289,-1.67589 -3.32919,-2.53553 -2.00266,-1.81928 -3.83653,-3.90701 -4.8686,-6.43493 -0.85953,-0.87073 11.45448,-13.02643 12.31402,-12.15569 z"
       inkscape:connector-curvature="0" />
    <path
       style="fill:#381a07;fill-opacity:1;fill-rule:evenodd;stroke:#451a03;stroke-width:2;stroke-linejoin:miter;stroke-miterlimit:4;stroke-opacity:1;stroke-dasharray:none;stroke-dashoffset:0;opacity:1"
       id="path5353"
       d="m 234.89265,323.25424 c 0.37047,-0.25796 0.70631,-0.57467 1.11142,-0.77388 1.78085,-0.87573 3.6537,-1.30856 5.59387,-1.69619 1.35528,-0.27078 2.71226,-0.57244 4.0902,-0.67909 3.27021,-0.25313 5.39485,0.10609 8.6008,0.43924 2.28744,0.48797 5.37083,0.74073 6.93312,2.83632 0.17643,0.23667 0.37117,0.58858 0.23926,0.85266 -2.51888,5.04279 -4.82835,10.25167 -8.08433,14.85309 -0.38135,0.53894 -1.06049,-0.78668 -1.59074,-1.18003 -0.8471,-0.89484 11.80791,-12.87463 12.65501,-11.97979 l 0,0 c -5.28928,-3.41774 0.0311,-0.2283 -7.68733,15.00439 -0.19853,0.39181 -0.65775,0.5901 -1.03378,0.8171 -2.57929,1.55696 -5.52361,1.94185 -8.48549,2.05768 -1.36919,0.001 -2.73982,0.067 -4.10755,0.004 -4.81102,-0.22132 -9.75586,-1.25261 -13.90483,-3.79738 -0.55613,-0.34111 -1.05397,-0.76923 -1.58096,-1.15384 -1.1034,-0.51275 6.14793,-16.11714 7.25133,-15.60439 z"
       inkscape:connector-curvature="0" />
    <path
       style="fill:#47210b;fill-opacity:0.79262674;fill-rule:evenodd;stroke:#451a03;stroke-width:2;stroke-linejoin:miter;stroke-miterlimit:4;stroke-opacity:1;stroke-dasharray:none;stroke-dashoffset:0;opacity:1"
       id="path5355"
       d="m 211.70308,349.53116 c 0.12423,-1.15111 0.68452,-5.91261 0.60618,-6.99714 -0.0716,-0.99066 -0.65419,-1.90166 -0.71302,-2.89315 -0.0588,-0.99017 0.43976,-1.96395 0.36612,-2.95312 -0.0472,-0.63365 -0.57925,-1.14584 -0.71744,-1.76603 -0.19915,-0.89377 -0.1899,-1.82151 -0.28485,-2.73227 0.16781,-3.65977 0.25394,-2.35916 -0.12754,-5.84135 -0.13433,-1.22619 -0.90426,-2.53288 -0.43739,-3.67464 1.69485,-4.1449 5.36642,-5.84896 9.0633,-7.45345 11.91483,-1.21425 13.63204,15.63587 1.71721,16.85012 l 0,0 c 0.45476,-0.28164 0.96505,-0.48891 1.36429,-0.84492 1.05477,-0.94056 2.76179,-3.53319 2.87613,-4.67843 0.0417,-0.41802 -1.04109,-0.3649 -1.26028,-0.007 -0.2783,0.45503 0.45423,3.49647 0.52665,3.84362 0.16054,1.89482 0.30549,3.79095 0.46621,5.68576 0.0787,0.92793 0.36844,1.85848 0.25183,2.78241 -0.14683,1.16342 -1.0705,2.19265 -1.02761,3.36451 0.0754,2.06017 2.23668,3.67036 2.01932,5.84569 1.03868,10.38677 -13.65044,11.85568 -14.68911,1.46891 z"
       inkscape:connector-curvature="0" />
    <path
       style="fill:#381a07;fill-opacity:1;fill-rule:evenodd;stroke:#451a03;stroke-width:2;stroke-linejoin:miter;stroke-miterlimit:4;stroke-opacity:1;stroke-dasharray:none;stroke-dashoffset:0;opacity:1"
       id="path5357"
       d="m 275.12893,335.15658 c 0.70491,0.62274 2.39056,2.16651 3.14805,2.58109 1.01469,0.55535 2.21346,0.7418 3.19558,1.35291 0.94633,0.58884 1.74642,1.39594 2.51671,2.20149 3.25991,3.40915 0.0204,1.2332 3.49644,3.23825 1.65313,1.18194 1.47423,1.94439 2.77137,0.8792 0.0989,-0.0812 0.0678,-0.39861 0.18089,-0.33873 0.34213,0.18108 0.45062,0.66411 0.78901,0.85209 0.10756,0.0597 -0.002,-0.30317 0.11119,-0.35201 0.34735,-0.15021 0.74722,-0.12051 1.12083,-0.18076 1.17101,0.58644 2.43961,1.00904 3.51304,1.75933 0.90746,0.63427 1.32899,1.92621 2.35502,2.34221 0.66785,0.27078 -0.53002,-1.44192 -1.12768,-1.8446 -1.313,-0.88463 -2.84955,-1.41974 -4.3704,-1.85972 -1.70369,-0.49288 -2.09799,0.75452 -1.65406,-0.2985 1.65949,0.65767 0.81853,0.61426 2.52187,0.14838 11.46171,-0.21813 11.7702,15.99117 0.30849,16.2093 l 0,0 c -0.12356,1.16373 0.029,1.34417 -0.27288,0.65422 -0.32173,-0.0385 -0.64207,-0.13981 -0.9652,-0.1156 -0.96573,0.0723 -1.92277,0.56773 -2.87716,0.40341 -0.86552,-0.14902 -7.58148,-1.09984 -5.82667,-4.69248 0.72322,-1.48065 1.07427,8.87318 4.37949,2.29309 -0.53874,1.96136 0.22382,0.2475 -1.60727,-0.32962 -0.60317,-0.1901 -1.27223,0.38377 -1.88404,0.22363 -2.85956,-0.74847 -4.04707,-3.5778 -6.42483,-5.02729 -7.80722,-5.46561 1.45756,1.51725 -3.43911,-3.44366 -0.3007,-0.30464 -0.79293,-0.32284 -1.18696,-0.49009 -1.62677,-0.69054 -3.21021,-1.4746 -5.00974,-1.61016 -10.29221,-4.41095 -4.05419,-18.96633 6.23802,-14.55538 z"
       inkscape:connector-curvature="0" />
    <path
       style="fill:#381a07;fill-opacity:1;fill-rule:evenodd;stroke:#451a03;stroke-width:2;stroke-linejoin:miter;stroke-miterlimit:4;stroke-opacity:1;stroke-dasharray:none;stroke-dashoffset:0;opacity:1"
       id="path5359"
       d="m 309.10714,340.90287 c 0.71429,0.5239 1.30223,1.29239 2.14286,1.57171 0.17577,0.0584 2.41402,-0.5263 2.85714,-0.40766 1.8821,0.50389 3.63005,1.45745 5.52701,1.90213 0.20571,0.0482 -0.22583,-3.32228 0.19251,0.77271 1.13408,0.60727 2.04302,-0.70425 3.08292,-0.58924 0.86093,0.0952 3.72324,3.02814 3.96354,3.18823 0.88665,0.59064 1.92572,0.91195 2.88858,1.36793 0.68642,0.71967 1.37283,1.43935 2.05925,2.15902 0.78165,0.60099 1.64622,1.10731 2.34496,1.80297 0.62636,0.6236 0.8376,1.66192 1.5942,2.11883 5.21889,3.15169 1.03586,-0.16115 3.72166,0.0332 0.39572,0.0286 0.6847,0.40102 1.02706,0.60154 0.44365,0.0981 0.94857,0.0489 1.33096,0.29436 6.97189,4.47489 -2.08112,0.68541 -1.48639,-0.99632 0.52026,-1.47111 3.26789,0.75817 4.24384,1.97569 1.55706,1.94248 1.74236,4.67539 2.86765,6.89606 0.68182,1.34551 -1.02068,-2.83888 -1.53102,-4.25832 0.83945,1.79505 0.34933,0.64711 1.30309,3.51052 2.09715,11.40456 -14.03132,14.37039 -16.12848,2.96583 l 0,0 c -0.6466,2.51025 -1.29065,2.17019 0.5772,2.1073 -0.7862,-1.41105 -2.91629,-5.74914 -2.3586,-4.23317 0.77963,2.11933 1.52619,4.37465 3.03027,6.05902 0.92311,1.03376 4.7395,2.66622 3.82844,1.62182 -1.15794,-1.32741 -3.24217,-1.46131 -4.63222,-2.54324 -0.58726,-0.45709 3.93069,0.72365 1.92269,1.13468 -3.26194,-4.47609 1.64135,1.89327 -3.55668,-3.28076 -0.61075,-0.60794 -0.78167,-1.59624 -1.44987,-2.1404 -0.75659,-0.61615 -1.87076,-0.64408 -2.66509,-1.21074 -4.3315,-3.08995 1.08209,-1.27349 -4.40432,-2.58422 -0.22607,-0.34942 -0.26623,-0.98932 -0.67821,-1.04825 -1.09336,-0.15639 -0.19149,2.25088 -1.88326,0.83192 -0.29099,-0.24407 0.0708,-0.84342 -0.18483,-1.12431 -0.81843,-0.89923 -2.82524,-0.91465 -3.78032,-1.03923 -1.01746,-0.18899 -2.07187,-0.23601 -3.0524,-0.56697 -0.81395,-0.27474 -3.12372,-1.18364 -2.2658,-1.2281 1.55957,-0.0808 3.00065,0.9276 4.55166,1.10965 0.45074,0.0529 -0.7306,-0.56685 -1.16071,-0.71164 -1.6021,-0.53932 -2.1862,-0.14103 -3.83929,0.22738 -11.51869,0 -11.51869,-16.2899 0,-16.2899 z"
       inkscape:connector-curvature="0" />
    <path
       style="fill:#2b1806;fill-opacity:1;fill-rule:evenodd;stroke:#451a03;stroke-width:2;stroke-linejoin:miter;stroke-miterlimit:4;stroke-opacity:1;stroke-dasharray:none;stroke-dashoffset:0;opacity:1"
       id="path5361"
       d="m 213.57143,351.62544 c 1.62442,0.6885 4.22244,1.8783 5.89286,2.14867 1.23413,0.19976 2.50138,0.004 3.75,0.0671 1.40144,0.0707 2.80181,0.17844 4.19642,0.33365 7.01278,0.78047 1.96535,0.85278 9.40866,0.18989 5.55768,0.847 3.81114,0.45074 9.14558,1.7638 1.14128,0.28093 2.24926,0.72221 3.41341,0.88411 1.55754,0.21661 4.13105,-0.17167 5.74051,0.11142 0.82691,0.14545 1.59338,0.52996 2.39007,0.79494 0.64873,-0.29708 1.23569,-0.95686 1.94618,-0.89125 1.61685,0.14933 1.53055,1.29388 0.71899,1.31494 -0.0694,0.002 0.16574,-0.0647 0.15959,-0.13391 -0.0154,-0.17325 -0.37266,-0.54688 -0.21383,-0.47598 0.91532,0.40859 1.72394,1.02324 2.58591,1.53487 2.21871,0.44019 2.81275,0.37824 4.63367,1.24188 0.50904,0.24142 0.92402,0.69184 1.46842,0.83688 0.25014,0.0666 0.47897,-0.28549 0.73536,-0.24974 1.44917,0.20205 0.75563,1.03774 1.3475,-0.0287 -0.16056,-0.35116 -0.1735,-1.28609 -0.4817,-1.05347 -0.34454,0.26005 0.11867,0.85512 0.17801,1.28269 -1.1239,0.20091 -2.23402,0.5069 -3.3717,0.60275 -0.15552,0.0131 0.17728,-0.27413 0.31617,-0.34532 3.08424,-1.58092 2.37583,-1.39855 3.98396,-1.74804 -4.54295,1.766 -1.1668,-0.64652 -0.93821,-0.39564 0.72292,0.79338 -3.72221,2.90266 1.44983,-0.12343 11.19612,-4.87351 18.08831,10.9602 6.89218,15.83371 l 0,0 c 0.48939,-0.25362 1.29711,-1.28488 1.46817,-0.76088 0.18438,0.56481 -0.73566,1.15176 -1.32869,1.18814 -0.3775,0.0231 -0.21774,-0.7244 -0.32661,-1.0866 -0.74167,0.4858 -1.48335,0.97159 -2.22502,1.45739 -0.21031,0.0804 -0.82967,0.34721 -0.63094,0.24134 0.8872,-0.47264 1.734,-1.06509 2.6999,-1.34354 0.23526,-0.0678 -0.10384,0.55321 -0.32473,0.65882 -4.19581,2.00601 -4.04215,1.61016 -7.5426,1.92083 -0.82059,-0.40363 -2.96514,-1.52251 -3.89901,-1.73564 -1.06726,-0.24358 -2.17174,-0.27753 -3.25761,-0.41629 -0.71201,-0.25875 -1.40708,-0.56993 -2.13601,-0.77624 -1.98616,-0.56215 -1.18331,0.17489 -1.89181,-0.57891 -0.0648,0.10543 -0.0723,0.29677 -0.19452,0.31631 -2.31794,0.37056 -2.43715,0.31129 -4.31106,-0.44671 -0.67387,-0.27258 -1.40975,-0.45064 -1.99378,-0.88343 -0.2828,-0.20957 -0.18268,-0.74475 -0.47265,-0.94427 -0.27113,-0.18655 -0.65703,-0.0394 -0.98554,-0.059 -0.24069,-2.29762 0.32309,-1.06036 -2.10604,-2.22374 -0.96489,-0.46211 -1.8204,-1.15751 -2.82738,-1.51883 -1.23226,-0.44215 -2.57558,-0.49522 -3.83,-0.86994 -2.30152,-0.6875 -4.38588,-2.02605 -6.82139,-2.32285 -5.4264,0.12933 -2.92039,0.10008 -8.57124,0.10493 -2.16709,0.002 -5.7553,-0.14014 -7.94642,0.37576 -1.17964,0.27775 -2.244,0.92069 -3.39286,1.30644 -0.81805,0.27468 -1.66667,0.44814 -2.5,0.67221 -11.15183,0 -11.15183,-15.77107 0,-15.77107 z"
       inkscape:connector-curvature="0" />
    <path
       style="fill:#381a07;fill-opacity:1;fill-rule:evenodd;stroke:#451a03;stroke-width:2;stroke-linejoin:miter;stroke-miterlimit:4;stroke-opacity:1;stroke-dasharray:none;stroke-dashoffset:0;opacity:1"
       id="path5363"
       d="m 243.92857,341.40455 c 3.17931,0.22995 2.09382,0.0825 5.53572,0.65382 1.19218,0.19788 2.36835,0.50939 3.57142,0.62368 1.27431,0.12104 2.55982,0.0422 3.83929,0.0803 1.28015,0.0381 2.56127,0.23125 3.83929,0.14819 1.01423,-0.0659 1.99404,-0.39474 2.99107,-0.5921 1.53412,2.38862 5.53106,-1.0388 7.16291,0.72063 4.16697,4.49276 6.13983,8.34181 1.86046,12.68891 -0.72995,0.7415 0.54569,-2.01003 0.88975,-2.992 0.41691,-1.18991 0.92732,-2.34498 1.39099,-3.51747 -0.72059,-1.09749 -1.58664,-2.11223 -2.16176,-3.29248 -0.18973,-0.38935 -0.42637,-1.5501 -0.0747,-1.29721 0.65394,0.47029 0.79533,1.40095 1.19299,2.10143 7.52185,9.54696 -5.9796,20.18447 -13.50145,10.6375 l 0,0 c 0.29265,0.36757 1.31595,1.27272 0.87796,1.10269 -2.33817,-0.90765 -2.51085,-4.14847 -3.09701,-5.959 -0.0785,-1.41168 -0.60211,-2.86952 -0.23555,-4.23505 0.32923,-1.22649 2.91803,-4.1576 2.20616,-3.10597 -0.79083,1.16827 -2.70867,2.07042 -2.44307,3.45596 0.55478,2.89407 2.59639,5.37557 4.55763,7.57489 0.41395,0.46421 1.43454,0.0639 1.81638,-0.4271 0.28883,-0.37138 -0.29443,-0.89369 -0.44165,-1.34053 -0.99703,-0.0309 -1.99997,0.0202 -2.99107,-0.0927 -1.29162,-0.14702 -2.54007,-0.7288 -3.83929,-0.68481 -1.31719,0.0446 -2.5386,0.73219 -3.83929,0.94478 -1.17815,0.19255 -2.39223,0.0804 -3.57142,0.26642 -2.40637,0.37971 -3.36704,0.91279 -5.53572,1.80717 -10.79749,0 -10.79749,-15.26996 0,-15.26996 z"
       inkscape:connector-curvature="0" />
    <path
       style="fill:#3e1d08;fill-opacity:1;fill-rule:evenodd;stroke:#451a03;stroke-width:2;stroke-linejoin:miter;stroke-miterlimit:4;stroke-opacity:1;stroke-dasharray:none;stroke-dashoffset:0;opacity:1"
       id="path5365"
       d="m 299.606,356.0442 c 0.74633,0.74905 1.35753,1.66309 2.23899,2.24715 0.5726,0.37941 1.32288,0.37054 1.98538,0.55195 0.70763,0.19376 1.40243,0.44635 2.12499,0.57356 0.42719,0.0752 0.90764,-0.15336 1.30093,0.0296 1.15286,0.53625 -1.62365,1.06131 0.78521,0.37614 2.32061,0.79125 -0.39639,-0.19304 3.00709,1.36654 0.22058,0.10108 0.51387,0.0489 0.69779,0.2072 0.31739,0.27307 0.41825,0.7429 0.73058,1.02174 0.76393,0.68201 1.73546,1.11463 2.46612,1.83218 0.19873,0.19516 -0.53992,-0.13711 -0.80989,-0.20566 0.37601,0.37973 2.13425,2.11237 2.31399,2.4945 0.0744,0.15814 -0.55714,-0.006 -0.49964,0.15885 0.22178,0.63646 0.82539,1.07429 1.13749,1.67167 0.24675,0.47231 0.34986,1.0067 0.52478,1.51005 0.30514,0.55339 0.61027,1.10677 0.91541,1.66016 -1.68134,1.59311 0.74716,0.71252 0.63456,1.1294 -0.0734,0.27184 -0.83822,0.22643 -0.70053,0.47203 0.43413,0.77437 1.65747,0.96134 1.96996,1.79228 0.19802,0.52656 -0.6322,0.97 -0.72232,1.5253 -0.0935,0.57613 0.12824,1.16027 0.19236,1.74041 -0.0765,0.16669 -0.25911,0.31905 -0.22957,0.50006 0.1546,0.94709 1.00587,1.67867 1.19371,2.61972 0.0917,0.45928 -0.0747,0.93376 -0.12186,1.39972 -0.27774,2.74537 -0.50009,1.52168 -3.23468,6.0654 -2.0569,1.60869 -4.17066,3.17752 -6.81638,3.63224 -0.5789,0.0995 -1.19691,0.12506 -1.76182,-0.0359 -9.45944,-2.69553 3.90555,-0.10923 -6.04891,-1.83547 -8.90081,0.0259 -8.93749,-12.56171 -0.0367,-12.58764 l 0,0 c 4.33424,-2.40703 0.92734,-0.93557 4.17896,-1.6418 0.3772,-0.0819 0.76652,-0.58568 1.09362,-0.38074 0.25964,0.16268 -0.0677,0.70666 -0.33537,0.85583 -0.62649,0.34918 -1.64441,-1.23115 -2.12541,0.33533 -0.56713,1.60174 -1.13426,3.20348 -1.70139,4.80523 -0.17748,-0.033 -0.44013,-0.25418 -0.53245,-0.099 -0.23514,0.39512 1.06575,0.64357 1.35017,0.2823 0.1501,-0.19065 -0.33177,-0.36034 -0.44982,-0.57235 -0.26733,-0.48012 -0.46664,-0.99507 -0.69997,-1.49261 0.0646,-0.0181 0.19773,0.0127 0.19371,-0.0543 -0.009,-0.15724 -0.26347,-0.56913 -0.22199,-0.41717 0.0891,0.32644 0.31035,1.28033 0.36653,0.94665 0.15386,-0.91399 -1.02168,-2.44593 -0.72644,-3.45644 -0.27032,-0.32039 -0.318,-0.44454 -0.83931,-0.57409 -0.15242,-0.0379 -0.36993,0.16746 -0.46897,0.0456 -0.4136,-0.50903 -0.75625,-1.10666 -0.91104,-1.74401 -0.0426,-0.17547 0.40472,0.007 0.52235,0.14353 0.11148,0.12983 0.0269,0.34118 0.0403,0.51177 -0.38239,-0.39544 -1.56438,-0.82781 -1.14717,-1.18631 0.42863,-0.36831 1.01588,0.5541 1.37749,0.9884 0.0939,0.11272 -0.1119,0.33768 -0.2573,0.35697 -0.57719,0.0766 -1.789,-1.67973 0.97243,-0.62993 0.28302,0.10759 -0.34266,0.4993 -0.51399,0.74896 -1.37924,-3.38108 0.98507,1.59463 -1.90367,-1.32856 -0.39677,-0.4015 -0.0855,-1.19035 -0.42922,-1.63814 -0.24421,-0.31817 -0.8028,-0.17486 -1.13493,-0.39972 -3.21955,-2.17983 -0.39587,-1.41981 -3.73584,-1.91351 -10.18585,-3.39528 -5.38419,-17.80025 4.80166,-14.40496 z"
       inkscape:connector-curvature="0" />
    <path
       style="fill:#381a07;fill-opacity:1;fill-rule:evenodd;stroke:#451a03;stroke-width:2;stroke-linejoin:miter;stroke-miterlimit:4;stroke-opacity:1;stroke-dasharray:none;stroke-dashoffset:0;opacity:1"
       id="path5367"
       d="m 201.44874,349.8719 c 0.99554,3.78472 0.34316,2.29803 2.41381,5.86229 0.50403,0.8676 0.8147,1.9015 1.55788,2.57563 0.57917,0.52536 1.46354,0.5512 2.19472,0.82834 0.41394,0.15689 0.81788,0.60502 1.24063,0.47374 0.26271,-0.0816 -0.1049,-0.5401 -0.15734,-0.81015 7.86863,1.48159 4.42561,2.79296 5.58007,11.82692 0.0998,0.78079 0.54562,-1.6924 0.12553,-2.35807 -8.17161,-12.94878 -7.60975,-5.67866 -7.93001,-10.26198 1.07937,0.25999 2.15873,0.51998 3.23809,0.77997 0.32406,-0.19827 0.59958,-0.66892 0.97218,-0.59481 0.25424,0.0506 -0.43492,0.57828 -0.23371,0.7417 0.4815,0.3911 1.2298,0.24698 1.78689,0.51984 0.10448,0.0512 -0.1513,0.21469 -0.26722,0.22448 -0.15263,0.0129 -0.28573,-0.11048 -0.4286,-0.16572 1.71352,0.54659 1.31375,0.8837 2.3581,0.23916 0.0117,-0.007 -0.0238,-0.0481 -0.0135,-0.039 0.17342,0.15145 0.27762,0.4449 0.50653,0.46961 0.33816,0.0365 0.64809,-0.20667 0.97213,-0.31 0.79952,0.0968 1.59905,0.19368 2.39857,0.29053 0.49912,-0.26385 0.93374,-0.75903 1.49737,-0.79155 0.24456,-0.0141 -0.37248,0.57699 -0.17006,0.71495 0.61541,2.9648 1.50445,-0.0752 2.16904,0.21875 0.11319,0.0501 -0.41199,0.10359 -0.32069,0.18715 0.50651,0.46358 1.15749,0.73895 1.73624,1.10842 1.16704,-1.09999 -0.0578,-0.2051 2.39624,-0.42774 0.0952,-0.009 0.0446,-0.18587 0.0668,-0.2788 0.43892,0.19783 0.89276,0.36542 1.31676,0.59349 0.51899,0.27916 0.94342,0.75146 1.50655,0.92516 0.50421,0.15554 1.05515,0.0185 1.58273,0.0278 0.0447,2.03467 -0.26293,-0.237 0.83486,1.09549 0.13822,0.16777 -0.86302,-0.0351 -0.64841,-0.0697 0.41486,-0.0668 0.92389,0.2229 1.2603,-0.0289 0.24289,-0.18181 -0.29842,-0.98998 -0.006,-0.91019 1.27427,0.34735 2.33169,1.24134 3.49753,1.86201 -2.61839,-1.48351 0.3137,0.0646 0.12464,0.53553 -0.24893,0.62007 -8.43089,-2.83433 2.11236,1.19233 8.69678,9.24048 -4.37123,21.53959 -13.06801,12.2991 l 0,0 c 0.94968,0.5389 2.0339,0.89017 2.84905,1.6167 0.57195,0.50977 -1.40744,-0.6074 -2.09527,-0.94487 -0.23566,-0.11562 0.94965,0.43176 0.73668,0.2783 -0.45352,-0.32676 -0.98007,-0.53783 -1.47011,-0.80675 1.02363,0.36992 2.00129,0.90821 3.07089,1.10974 0.32075,0.0604 -0.54253,-0.39079 -0.7175,-0.66633 -0.0495,-0.078 0.23136,-0.20715 0.14389,-0.23697 -0.71998,-0.24545 -1.49369,-0.29203 -2.23206,-0.4749 -0.5534,-0.13707 -2.116,-0.72755 -2.51813,-0.87412 -0.27803,-0.64713 -0.0815,0.0465 0.0875,-0.37231 0.15115,-0.37442 -1.44285,-0.45297 -1.49796,-0.44167 -0.38764,0.0795 1.88823,2.0573 -0.88405,0.79233 0.23489,-0.20364 0.97163,-0.45163 0.70467,-0.61092 -0.49744,-0.2968 -1.17822,0.14438 -1.73775,-0.006 -0.39682,-0.10629 -0.60023,-0.61452 -0.99545,-0.7266 -0.15595,-0.0442 0.26856,0.47263 0.10647,0.4745 -0.7522,0.009 -1.24044,-0.26858 -1.80855,-0.56947 0.16827,-0.0989 0.69804,-0.32449 0.50483,-0.29674 -1.07017,0.15375 -1.80784,0.86894 -2.97746,0.63636 -0.64082,-0.12743 -1.10639,-0.74713 -1.74193,-0.89873 -0.31446,-0.075 -1.67384,0.46805 -0.73001,0.10431 -4.59155,-0.17061 0.4628,-0.0235 -3.62358,-0.0309 -0.24854,-4.5e-4 0.821,0.19287 0.74435,-0.0435 -0.12538,-0.38674 -0.62169,-0.53995 -0.98961,-0.71294 -0.15547,-0.0731 -0.6652,-0.0788 -0.51538,0.005 0.66532,0.3734 1.40606,0.59275 2.10909,0.88912 -4.42912,-2.86388 -6.61746,-4.15404 -10.7863,-10.53094 -0.49915,-0.76353 1.69903,-2.80083 1.94707,-1.923 2.35603,8.33823 -3.70173,9.14851 3.74502,10.53641 0.44947,0.0838 -0.73955,-0.53782 -1.10933,-0.80673 -1.63218,-1.25693 -3.75095,-2.56799 -4.86277,-4.43594 -1.59436,-2.67867 -0.91604,-3.79911 -2.97523,-6.33186 -0.51267,-0.63057 -4.65621,-3.71921 -5.41181,-4.29258 -5.62474,-8.99958 7.10259,-16.95417 12.72733,-7.95458 z"
       inkscape:connector-curvature="0" />
    <path
       style="fill:#381a07;fill-opacity:1;fill-rule:evenodd;stroke:#451a03;stroke-width:2;stroke-linejoin:miter;stroke-miterlimit:4;stroke-opacity:1;stroke-dasharray:none;stroke-dashoffset:0;opacity:1"
       id="path5369"
       d="m 220.36065,376.52067 c 2.73982,2.90254 0.60409,0.99937 4.71809,3.475 1.00691,0.60592 2.00308,1.23304 2.95909,1.91645 0.9992,0.71428 1.82606,1.67747 2.90062,2.27238 1.00905,0.55863 2.44986,0.22717 3.48234,0.10805 1.49619,0.55988 3.03276,-0.11819 4.5362,0.0438 0.6979,0.0752 1.30045,0.62179 2.00164,0.65412 0.29531,0.0136 0.61877,-0.24843 0.71181,-0.52903 0.0576,-0.1737 -0.24115,-0.31065 -0.41865,-0.35514 -0.62406,-0.15644 -1.27756,-0.15345 -1.91634,-0.23018 -1.913,-0.9747 -3.41938,-1.64121 5.22366,-0.57669 0.40396,0.0497 0.42544,0.70717 0.52768,1.10113 0.0271,0.10451 -0.27796,0.26584 -0.17042,0.27546 0.16734,0.015 0.29112,-0.16777 0.43668,-0.25166 0.28043,0.14389 0.56086,0.28778 0.84129,0.43167 1.9014,-1.00695 0.19177,-0.47137 2.46347,0.17838 0.43298,0.12384 0.89998,0.0353 1.34992,0.0542 0.46176,0.0194 1.46471,0.51588 1.38518,0.0606 -0.25967,-1.48639 -2.42576,-0.42103 -2.87418,-0.27342 -1.20915,0.22954 1.03572,-1.68022 0.63756,-1.37115 -7.47791,5.80461 2.3142,-0.93746 -2.96049,10.24117 -0.8165,1.73041 -1.31461,-3.85789 -0.76108,-5.68945 0.59003,-1.9523 2.60286,-3.14064 3.90429,-4.71097 0.91667,-0.75537 1.83334,-1.51074 2.75001,-2.26611 12.04809,-3.79916 17.42092,13.23941 5.37283,17.03857 l 0,0 c 0.73681,-0.45705 1.47362,-0.9141 2.21043,-1.37116 1.03259,-1.52352 2.67843,-2.77849 3.09777,-4.57057 0.41227,-1.76185 -0.35935,-7.1353 -0.77095,-5.37329 -0.59774,2.55881 0.88827,5.34905 0.18517,7.88094 -0.3905,1.40616 -2.14814,1.97628 -3.20268,2.9851 -0.15738,0.15056 0.71779,-0.47311 0.50968,-0.40887 -0.60395,0.18644 -1.15089,0.52297 -1.72633,0.78445 -0.90501,0.65753 -1.65084,1.62778 -2.71502,1.9726 -1.18731,0.38472 -2.49485,0.0811 -3.74233,0.11976 -1.58246,0.0491 -3.16814,0.0857 -4.74469,-0.10062 -1.69686,0.9911 -1.51023,1.25939 -3.59871,0.90023 -0.70296,-0.12089 -1.3275,-0.59845 -2.03896,-0.64923 -0.28776,-0.0205 -1.02715,0.45326 -0.73867,0.45101 1.55867,-0.0122 3.11304,-0.2298 4.65128,-0.48163 0.37059,-0.0607 -0.74831,-0.0641 -1.12247,-0.0961 -0.89044,0.15385 -1.76824,0.49316 -2.67133,0.46154 -0.75964,-0.0266 -1.46641,-0.40231 -2.19105,-0.63178 -1.05769,-0.33494 -2.11996,-0.66946 -3.13616,-1.11468 -4.23044,-1.85343 2.69268,0.88179 -3.67463,-1.55734 -1.1731,-0.28311 -2.39733,-0.40492 -3.5193,-0.84933 -1.40166,-0.55519 -2.68345,-1.37729 -3.99207,-2.1259 -2.17504,-1.24426 -2.96413,-2.20813 -5.42332,-2.80288 -0.81311,-0.19665 -1.67418,-0.0629 -2.50395,-0.16926 -0.8112,-0.10396 -1.60659,-0.30699 -2.40989,-0.46049 -10.175,-4.36071 -4.00802,-18.75033 6.16698,-14.38962 z"
       inkscape:connector-curvature="0" />
    <path
       style="fill:#381a07;fill-opacity:1;fill-rule:evenodd;stroke:#451a03;stroke-width:2;stroke-linejoin:miter;stroke-miterlimit:4;stroke-opacity:1;stroke-dasharray:none;stroke-dashoffset:0;opacity:1"
       id="path5371"
       d="m 262.5,376.50948 c 1.09976,0.21771 2.22297,0.33939 3.29928,0.65312 1.07066,0.31208 2.0559,0.87216 3.11647,1.21698 0.46856,0.15233 0.97053,0.17115 1.45346,0.26879 0.33299,0.0673 0.655,0.20117 0.99382,0.22598 0.70939,0.052 1.43091,-0.10544 2.13388,0.003 0.52577,0.0811 0.99707,0.37138 1.4956,0.55707 0.1984,0.26227 0.30554,0.63107 0.59518,0.78682 0.36133,0.1943 0.85771,0.38641 1.21644,0.18736 0.55107,-0.30579 -2.46092,-1.69022 0.67984,-0.27784 3.8092,1.71297 2.78903,1.20325 5.85756,3.76136 -0.032,-0.25946 0.12009,-0.63119 -0.096,-0.77837 -0.1779,-0.1212 -0.26766,0.48555 -0.11344,0.63571 0.17125,0.16675 0.49241,-0.13588 0.71534,-0.0497 0.16683,0.0645 0.12721,0.40729 0.30242,0.44331 0.23319,0.0479 0.46668,-0.36429 0.67156,-0.24305 0.62192,0.36802 1.01583,1.02809 1.52374,1.54213 0.45574,-0.0953 1.0083,-0.58243 1.3672,-0.28584 0.43476,0.35926 -0.015,1.19815 0.3016,1.66486 0.58711,0.86538 1.43519,1.54049 2.28578,2.14882 0.1789,0.12795 -0.29452,-0.81962 -0.17193,-0.63702 0.83376,1.24179 0.0937,1.38646 0.83994,1.1406 0.32473,0.33784 0.79332,0.58123 0.97419,1.01352 0.20375,0.48697 -0.0286,1.07063 0.11084,1.57975 0.0283,0.10327 0.30924,0.10366 0.32121,-0.003 0.0281,-0.25012 -0.3942,-0.91507 -0.24041,-0.71581 1.95454,2.53234 1.81151,1.82107 2.00138,3.27589 0.23809,0.53563 1.28417,1.46969 0.71429,1.6069 -0.65578,0.15789 -1.07065,-0.86231 -1.42625,-1.43548 -0.2177,-0.3509 0.6628,0.49272 0.99421,0.73908 0.26709,0.80209 1.37875,3.02367 0.80126,2.40626 -7.81474,-8.35482 4.57621,-0.35037 -8.10962,-7.26358 12.60101,0.17725 12.35036,17.99777 -0.25066,17.82053 l 0,0 c -8.90777,-4.22102 -5.36196,-0.72309 -8.87846,-8.1835 -0.26085,-0.5534 0.37442,1.16629 0.6076,1.7319 0.052,0.12614 0.33312,0.43173 0.24239,0.32983 -0.64855,-0.7283 -1.49048,-1.33314 -1.91684,-2.21021 -0.19894,-0.40925 0.78524,0.46005 1.17786,0.69007 -1.25226,-1.68696 0.89428,1.22155 1.2301,1.45787 0.5037,0.35446 -0.5792,-1.10619 -1.00711,-1.54919 -0.82553,-0.85464 -1.95998,-0.56194 -0.75957,-1.30661 -0.17292,-0.28462 -0.34584,-0.56925 -0.51876,-0.85387 -0.099,0.22812 -0.0714,0.78919 -0.29692,0.68438 -0.45619,-0.21203 -1.36194,-1.10107 -0.8755,-1.22928 0.47142,-0.12426 3.52546,1.43539 1.17621,0.77108 0.17611,-0.11215 0.63967,-0.15983 0.52833,-0.33646 -0.57493,-0.91213 -1.98914,-0.66064 -2.75928,-0.99103 -0.41325,-0.17729 -0.69838,-0.56726 -1.06135,-0.83269 -1.74424,-1.27553 -0.2727,0.15567 -2.35416,-2.32292 0.51567,0.45537 0.89023,1.16142 1.54702,1.3661 0.66461,0.20711 1.56556,-0.71198 2.07484,-0.2374 0.38785,0.36141 -0.49126,1.20352 -1.02117,1.21926 -3.54863,0.10542 -2.02472,-2.33104 -4.96592,-2.34838 -2.24438,0.11328 0.52142,0.25676 -1.26165,-1.08397 -0.17794,-0.13379 -3.67006,-1.00262 -3.85791,-1.11196 -0.34087,-0.1984 -0.26552,-1.04984 -0.65465,-0.98561 -0.47101,0.0777 -0.50221,0.81201 -0.75332,1.21801 -11.22455,0 -11.22455,-15.87391 0,-15.87391 z"
       inkscape:connector-curvature="0" />
    <path
       style="fill:#381a07;fill-opacity:1;fill-rule:evenodd;stroke:#451a03;stroke-width:2;stroke-linejoin:miter;stroke-miterlimit:4;stroke-opacity:1;stroke-dasharray:none;stroke-dashoffset:0;opacity:1"
       id="path5373"
       d="m 307.92664,393.09674 c 8.28438,1.60936 -1.33376,0.0752 4.54618,0.23825 1.00611,0.0279 2.00017,0.62037 2.98861,0.43063 0.81732,-0.1569 1.25432,-1.21977 2.06659,-1.40103 3.38843,0.4742 1.74557,0.58241 4.93294,-0.24999 1.35098,0.3259 2.38534,0.79082 3.77481,0.41062 0.081,-0.0222 1.11222,-0.82325 1.50872,-0.81026 1.31303,0.043 3.72556,1.52004 4.26552,1.78088 1.13918,-1.22976 2.3641,0.2547 3.49862,-0.0154 0.35093,-0.0835 0.50403,-0.51667 0.76896,-0.76149 0.54889,-0.50723 3.84889,-0.87868 -2.02976,0.2792 0.43166,-0.19872 0.86333,-0.39744 1.295,-0.59616 0.2335,-0.025 0.47925,0.004 0.70049,-0.075 0.18668,-0.0664 -0.55201,-0.545 -0.33972,-0.33294 0.57164,0.57105 0.74066,0.17717 0.0171,0.76459 -0.39417,0.49736 -0.56615,1.34096 -1.18251,1.49209 -0.41038,0.10063 -1.0007,-0.67088 -0.75748,-1.0164 1.43533,-2.03908 3.5443,-3.51097 5.23473,-5.34412 0.0916,-0.0994 -0.26924,0.0434 -0.39419,0.0949 -0.53112,0.21882 -1.20664,0.26765 -1.56852,0.71375 -0.68142,0.84 -0.9262,1.95495 -1.38929,2.93243 -2.94914,0.51162 0.29664,2.47544 -0.41776,3.34108 -0.26738,0.32397 -1.05778,0.57916 -1.24381,0.20254 -0.18696,-0.37853 0.60492,-0.5891 0.90738,-0.88365 -1.23265,-11.69147 15.30158,-13.43471 16.53424,-1.74324 l 0,0 c 1.95444,-0.3099 0.90663,2.07161 0.76341,2.72059 -0.23415,1.06094 -0.50135,2.11431 -0.75203,3.17147 -0.67849,1.13316 -1.12025,2.44723 -2.03547,3.39947 -0.53521,0.55687 -1.45887,0.53382 -2.12333,0.92758 -0.23779,0.14092 -0.69793,0.85752 -0.52505,0.64184 4.81282,-6.00397 5.13686,-7.34842 3.03807,-2.38893 -0.43483,0.62763 -0.78276,1.32538 -1.30447,1.88289 -0.37345,0.39906 -0.8906,0.63387 -1.34075,0.94383 -0.51,0.35116 -1.01817,0.70545 -1.53957,1.03945 -1.16193,0.7443 -2.46001,1.18298 -2.93469,2.6224 -1.32113,0.27495 -2.68336,0.39766 -3.9634,0.82484 -0.4021,0.13419 -0.54684,0.80886 -0.97054,0.82173 -0.62997,0.0191 -1.14161,-0.54217 -1.74022,-0.73939 -0.66674,-0.21966 -1.35536,-0.3708 -2.04394,-0.50733 -3.69377,-0.73243 -1.20236,0.20098 -4.58232,-1.40845 -0.12409,0.43028 -0.3423,2.75501 -1.72635,2.26236 -0.56264,-0.20027 -0.53567,-1.20038 -1.09038,-1.42163 -0.4157,-0.16581 -0.80437,0.45755 -1.25089,0.4878 -1.08512,0.0735 -2.13934,-0.72785 -3.25409,-0.2386 -0.39981,-0.19686 -0.77106,-0.46773 -1.19944,-0.59057 -1.2549,-0.35987 -2.5149,-0.1217 -3.77731,0.0289 -0.7736,0.0923 -1.54394,0.21057 -2.31411,0.32817 -3.6994,0.56489 -2.27528,0.20197 -5.12182,1.16585 -10.90755,1.36344 -12.83575,-14.06217 -1.9282,-15.42561 z"
       inkscape:connector-curvature="0" />
    <path
       style="fill:#381a07;fill-opacity:1;fill-rule:evenodd;stroke:#451a03;stroke-width:2;stroke-linejoin:miter;stroke-miterlimit:4;stroke-opacity:1;stroke-dasharray:none;stroke-dashoffset:0;opacity:1"
       id="path5375"
       d="m 332.87638,327.67122 c 0.94663,0.99346 2.91111,3.44293 4.52447,3.75824 0.89324,0.17458 1.78139,-0.43752 2.69122,-0.46095 1.78924,-0.0461 2.23009,0.40549 3.76416,0.83268 0.98226,0.27353 1.97808,0.49581 2.96712,0.74372 0.38303,0.22699 0.77889,0.4336 1.14908,0.68097 1.26518,0.84545 1.27531,1.27931 2.42527,1.42126 0.61816,0.0763 1.38914,-0.24535 1.86165,0.16046 0.92002,0.79015 1.23478,2.08991 1.92205,3.08913 0.69406,1.00909 1.4784,1.953 2.2176,2.92951 0.29042,2.13651 -0.10197,1.78811 0.86875,3.02891 0.36821,0.47066 0.70701,0.97303 1.14544,1.3791 1.67398,1.5504 1.73468,0.19151 2.79501,3.26684 0.39009,1.13139 0.36507,2.36548 0.5476,3.54822 0.29991,0.47054 0.92561,1.969 0.89972,1.41161 -0.0726,-1.5633 -0.63036,-3.06821 -1.04678,-4.57678 -0.13446,-0.48712 -0.83741,-1.83841 -0.60079,-1.39189 0.61506,1.16069 1.50785,2.24366 1.73752,3.53701 -0.67495,3.30896 -0.92285,1.97503 -0.18339,4.06618 0.0388,0.14764 -0.006,0.35128 0.11631,0.44291 0.16996,0.12759 0.41791,0.0776 0.62709,0.11512 0.039,0.007 -0.0777,-0.0157 -0.11659,-0.0235 -1.0032,2.20129 -1.28704,4.90536 -3.00958,6.60386 -1.27911,1.26127 -3.45558,0.98318 -5.18336,1.47476 -11.36033,2.6666 -15.13147,-13.39933 -3.77114,-16.06593 l 0,0 c -1.19392,0.66901 -2.75168,0.91891 -3.58175,2.00702 -1.29756,1.70093 -1.57556,3.98026 -2.46865,5.92428 -0.10523,0.22905 -0.0519,-0.54355 0.0918,-0.75062 0.77764,-1.12018 1.16645,-0.16925 0.63088,-1.05608 0.26336,0.80273 0.30074,1.67444 0.61442,2.45887 0.39937,0.99872 1.37224,1.79472 1.486,2.86429 0.0651,0.61216 -1.13288,-0.70598 -1.31885,-1.29283 -0.45843,-1.44661 -1.23467,-6.89851 -0.51131,-4.52374 0.16858,0.5942 0.14708,1.27976 0.50575,1.7826 0.13209,0.18519 0.69326,0.0901 0.66871,-0.13603 -0.0624,-0.57508 -0.57741,-1.00281 -0.84784,-1.51417 -1.11743,-2.11294 -2.08762,-4.4003 -3.93191,-6.00907 0.19875,0.1243 1.69229,0.99839 1.78505,1.29145 0.0874,0.27627 -0.47567,-0.35027 -0.75291,-0.43459 -0.83665,-0.25444 -1.7385,-0.27352 -2.56011,-0.57299 -0.64806,-0.2362 -0.65737,-1.47999 -1.65159,-1.24664 0.24377,-0.38693 1.10702,-0.90001 0.73133,-1.16078 -0.53526,-0.37154 -1.29526,0.49287 -1.92647,0.33121 -0.74618,-0.19111 -1.24036,-0.91801 -1.90234,-1.31182 -0.58084,-0.34553 -5.11994,-2.66546 -5.53101,-2.75119 -1.13024,-0.2357 -2.30831,0.0609 -3.46246,0.0913 -9.8726,-3.94903 -4.28781,-17.911 5.58478,-13.96196 z"
       inkscape:connector-curvature="0" />
    <path
       style="fill:#2b1405;fill-opacity:1;fill-rule:evenodd;stroke:#451a03;stroke-width:2;stroke-linejoin:miter;stroke-miterlimit:4;stroke-opacity:1;stroke-dasharray:none;stroke-dashoffset:0;opacity:1"
       id="path5377"
       d="m 332.01478,370.04199 c 0.74621,0.43563 1.44359,0.96851 2.23865,1.30688 5.56583,2.36878 -2.17319,-1.97894 3.67658,1.65883 0.69551,0.43252 1.62015,0.58823 2.12541,1.23284 1.10036,1.40385 -0.61397,2.37624 0.83863,1.32012 -0.0616,0.0719 -0.23038,0.13274 -0.1848,0.21574 0.33443,0.42483 0.66885,0.84966 1.00328,1.27449 0.20106,0.11558 0.45773,0.1661 0.60318,0.34673 0.5576,0.69249 1.96467,2.96431 1.46873,2.22641 -0.69981,-1.04124 -1.38692,-2.09098 -2.08038,-3.13647 9.27288,8.55958 -2.83219,21.6734 -12.10507,13.11383 l 0,0 c -0.67572,-1.2111 -1.55599,-2.32893 -2.02715,-3.63329 -0.20561,-0.5692 0.93153,0.8181 1.20521,1.35787 0.10713,0.21128 -0.46884,-0.12842 -0.65567,-0.27404 -0.0776,-0.0605 0.19667,-0.005 0.295,-0.007 -0.17343,-0.45823 -0.34686,-0.91645 -0.52029,-1.37468 -0.40907,-0.33383 -0.8143,-0.67243 -1.22722,-1.0015 -0.10732,-0.0855 0.21408,0.17275 0.3102,0.27069 0.25912,0.26404 0.38482,0.7969 0.75437,0.81405 0.29156,0.0135 0.51899,-0.47861 0.43707,-0.75875 -0.37892,-1.29569 -1.23416,-0.98384 -2.1502,-0.96559 -9.89037,-4.23873 -3.8959,-18.22582 5.99447,-13.98709 z"
       inkscape:connector-curvature="0" />
    <path
       style="fill:#2b1100;fill-opacity:1;fill-rule:evenodd;stroke:#451a03;stroke-width:2;stroke-linejoin:miter;stroke-miterlimit:4;stroke-opacity:1;stroke-dasharray:none;stroke-dashoffset:0"
       id="path5343-9"
       d="m 214.65071,229.0112 c 2.21061,1.87235 2.77212,2.8391 5.50174,3.54807 0.91849,0.23856 1.89333,0.15653 2.83029,0.30698 1.38994,0.22319 3.46327,0.7777 4.6284,1.53552 0.78528,0.51076 1.37542,1.27215 2.06314,1.90822 0.72046,0.57305 1.57791,1.00711 2.16138,1.71917 0.35515,0.43343 1.05237,1.83545 0.54919,1.58883 -0.71908,-0.35244 -0.85949,-1.35474 -1.35505,-1.9838 -0.0788,-0.10009 0.16405,0.47304 0.0857,0.37252 -0.35787,-0.45932 -1.52245,-1.51442 -0.94177,-1.47122 0.61117,0.0455 0.72534,0.98807 1.08802,1.4821 0.27837,0.39758 0.51611,0.82694 0.83511,1.19273 0.11367,0.13034 0.48096,0.44023 0.44202,0.27172 -0.11219,-0.48545 -0.40287,-0.91805 -0.68612,-1.32795 -0.30217,-0.43731 -0.43542,-0.12437 -0.30521,0.0855 0.15888,0.25608 0.37148,0.47464 0.55722,0.71196 0.52656,0.16085 1.05313,0.32169 1.57969,0.48254 9.26542,1.70215 6.85821,14.80543 -2.4072,13.10327 l 0,0 c -0.81006,0.12521 -1.62011,0.25042 -2.43016,0.37562 -0.74639,-0.36785 -1.46657,-0.79451 -2.23916,-1.10357 -0.61773,-0.24712 -1.29749,-0.31401 -1.91618,-0.55872 -0.55039,-0.2177 -4.10093,-2.15619 -4.22085,-2.24889 -0.14056,-0.10866 -0.146,-0.49018 0.0266,-0.53234 0.23289,-0.0569 0.40869,0.25074 0.61303,0.37611 0.23774,0.19815 0.97389,0.76127 0.71321,0.59445 -0.80612,-0.5159 -1.66582,-0.97893 -2.35373,-1.64433 -0.18441,-0.17837 -0.0245,-0.52488 -0.13042,-0.75853 -0.48853,-1.07737 -0.99443,-2.156 -1.64051,-3.14694 -0.0804,-0.12331 -0.1848,0.28015 -0.13767,0.4196 0.15719,0.46502 0.47647,0.85836 0.7147,1.28754 0.61788,0.009 1.238,0.0797 1.85364,0.0264 0.0723,-0.006 -0.0732,-0.12875 -0.12864,-0.1756 -0.44762,-0.3784 -0.85146,-0.83269 -1.37524,-1.09576 -0.83022,-0.41698 -1.82644,-0.45411 -2.63203,-0.91689 -1.09923,-0.63146 -1.85925,-1.79283 -3.01016,-2.3243 -0.96831,-0.44714 -2.10441,-0.34892 -3.15661,-0.52339 -8.18593,-3.4108 -3.36232,-14.98745 4.8236,-11.57665 z"
       inkscape:connector-curvature="0" />
    <path
       style="fill:#381a07;fill-opacity:1;fill-rule:evenodd;stroke:#451a03;stroke-width:2;stroke-linejoin:miter;stroke-miterlimit:4;stroke-opacity:1;stroke-dasharray:none;stroke-dashoffset:0;opacity:1"
       id="path5345-2"
       d="m 258.25592,237.62153 c 3.58185,1.08922 2.61043,0.99923 6.04747,1.33303 0.49533,0.0481 1.01594,0.22295 1.49111,0.075 0.18232,-0.0568 0.2526,-0.4718 0.0866,-0.56625 -0.73427,-0.41796 -1.162,1.2984 -0.38094,-0.64779 1.53921,-0.82444 2.84577,1.28541 4.32351,1.11101 0.31193,-0.0368 0.38147,-0.67065 0.69382,-0.63759 0.53942,0.0571 0.87766,0.66051 1.38311,0.85738 0.22145,0.0863 0.47451,-0.0276 0.71177,-0.0414 0.50877,0.2597 1.01754,0.5194 1.52631,0.7791 0.60418,-0.75542 0.22569,-0.50163 1.82378,-0.31552 0.0488,0.006 0.0516,0.11242 0.10044,0.10772 0.04,-0.004 0.012,-0.0794 0.0179,-0.1191 10.61167,0.39557 10.05224,15.40273 -0.55942,15.00716 l 0,0 c -0.56467,-0.11166 -1.12376,-0.25663 -1.694,-0.33497 -0.57038,-0.0784 -1.1943,0.096 -1.72197,-0.13432 -0.19737,-0.0861 0.13811,-0.55808 -0.0597,-0.64328 -0.48238,-0.2078 -1.04969,-0.0405 -1.57453,-0.0607 -1.10802,1.21276 -1.37503,-0.1509 -2.04288,-0.26911 -0.34488,-0.061 -0.74047,0.27398 -1.04573,0.10228 -0.19958,-0.11226 -0.74593,-2.35472 0.64731,-0.22995 -2.98852,0.71034 1.35743,-0.10694 -3.4249,-0.49404 -0.70415,-0.057 -1.39986,0.61404 -2.07807,0.41627 -0.62876,-0.18335 -0.8259,-1.03876 -1.35942,-1.41865 -1.25638,-0.89462 -1.56852,-0.63441 -2.91167,-0.4861 -9.46824,0 -9.46824,-13.39011 0,-13.39011 z"
       inkscape:connector-curvature="0" />
    <path
       style="fill:#381a07;fill-opacity:1;fill-rule:evenodd;stroke:#451a03;stroke-width:2;stroke-linejoin:miter;stroke-miterlimit:4;stroke-opacity:1;stroke-dasharray:none;stroke-dashoffset:0;opacity:1"
       id="path5347-4"
       d="m 297.54163,239.08569 c 0.91645,0.43663 2.24751,1.28831 3.39286,1.08086 0.36869,-0.0668 0.59982,-0.4494 0.89286,-0.6829 0.27256,-0.21718 0.45536,-0.6545 0.80357,-0.66886 1.086,0.72845 0.5489,0.69952 1.5625,0.40299 -0.47081,0.31065 1.57237,0.28963 1.18304,0.45316 -0.8346,0.35055 -1.73441,0.82289 -2.62862,0.68211 -0.39334,-0.0619 0.29356,-0.85314 0.66715,-0.99092 0.92483,-0.34109 1.95849,-0.22572 2.93773,-0.33858 9.82275,-1.89354 12.50062,11.99792 2.67788,13.89146 l 0,0 c 0.37183,0.0399 0.83357,-0.12606 1.11548,0.11965 0.16403,0.14297 -0.12979,0.49103 -0.33634,0.55945 -1.43949,0.47683 -2.95552,0.68033 -4.43328,1.0205 -0.2009,-0.0869 -0.38447,-0.24354 -0.60268,-0.26081 -0.2007,-0.0159 -0.38691,0.11147 -0.58036,0.1672 -0.22321,-0.20975 -0.36334,-0.62841 -0.66964,-0.62926 -0.0442,-1.2e-4 -1.4817,1.12066 -1.69643,1.0431 -0.42758,-0.15445 -0.53742,-0.74752 -0.89286,-1.03096 -1.99861,-1.5938 -1.47218,-1.0761 -3.39286,0.53809 -10.85852,0 -10.85852,-15.35628 0,-15.35628 z"
       inkscape:connector-curvature="0" />
    <path
       style="fill:#381a07;fill-opacity:0.6082949;fill-rule:evenodd;stroke:#451a03;stroke-width:2;stroke-linejoin:miter;stroke-miterlimit:4;stroke-opacity:1;stroke-dasharray:none;stroke-dashoffset:0;opacity:1"
       id="path5349-8"
       d="m 322.18449,235.94315 c 0.98857,-0.65298 1.92002,0.68111 2.85714,0.45372 0.42106,-0.10216 0.60021,-0.64685 0.98215,-0.85141 0.26617,-0.14256 0.98872,0.13352 0.89285,-0.15281 -0.30234,-0.90304 -1.06912,-0.37106 -1.43665,-0.17223 0.5639,-0.12848 1.1278,-0.25695 1.69171,-0.38542 10.59811,-2.01869 13.45297,12.96931 2.85485,14.988 l 0,0 c 0.24726,-0.0199 0.49451,-0.0398 0.74176,-0.0597 -1.72356,0.45782 -1.67839,0.54476 -3.85167,0.50023 -0.30542,-0.006 -0.58753,-0.21667 -0.89285,-0.20662 -0.3392,0.0112 -0.64277,0.26811 -0.98215,0.26832 -0.24624,1.6e-4 -2.83583,-0.65979 -2.85714,-0.66507 -9.69938,0 -9.69938,-13.717 0,-13.717 z"
       inkscape:connector-curvature="0" />
    <path
       style="fill:#3f1d08;fill-opacity:0.69585252;fill-rule:evenodd;stroke:#451a03;stroke-width:2;stroke-linejoin:miter;stroke-miterlimit:4;stroke-opacity:1;stroke-dasharray:none;stroke-dashoffset:0;opacity:1"
       id="path5351-6"
       d="m 194.54707,238.3279 c 2.09886,0.26187 3.91795,1.41212 5.7416,2.39568 0.7493,0.40412 1.54759,0.73034 2.2429,1.22156 2.03917,1.44063 2.77268,2.52333 4.39449,4.39865 1.75353,2.51977 2.91855,5.28379 3.29753,8.34082 0.11847,0.95564 0.20063,1.925 0.1349,2.88571 -0.18151,2.65294 -0.62929,3.18634 -1.6271,5.54943 -0.34218,-0.80172 -1.18487,2.74747 -1.7855,1.90866 -0.66876,0.96128 -14.26337,-8.49649 -13.5946,-9.45777 l 0,0 c 0.61197,-1.2296 -0.24765,0.16656 -0.3611,0.26482 -0.15516,0.49388 -0.35115,0.97674 -0.46548,1.48163 -0.10999,0.48571 -0.13677,0.98658 -0.20515,1.47987 -0.009,0.29622 0.0296,0.59775 -0.0269,0.88867 -0.0317,0.16312 -0.0814,0.37004 -0.23141,0.44151 -0.41026,0.19549 -1.61471,-0.66422 -1.63044,-0.67309 -1.05445,-0.7582 -2.38289,-1.67589 -3.32919,-2.53553 -2.00266,-1.81928 -3.83653,-3.90701 -4.8686,-6.43493 -0.85953,-0.87073 11.45448,-13.02643 12.31402,-12.15569 z"
       inkscape:connector-curvature="0" />
    <path
       style="fill:#381a07;fill-opacity:1;fill-rule:evenodd;stroke:#451a03;stroke-width:2;stroke-linejoin:miter;stroke-miterlimit:4;stroke-opacity:1;stroke-dasharray:none;stroke-dashoffset:0;opacity:1"
       id="path5353-2"
       d="m 228.14857,247.78648 c 0.37047,-0.25796 0.70631,-0.57467 1.11142,-0.77388 1.78085,-0.87573 3.6537,-1.30856 5.59387,-1.69619 1.35528,-0.27078 2.71226,-0.57244 4.0902,-0.67909 3.27021,-0.25313 5.39485,0.10609 8.6008,0.43924 2.28744,0.48797 5.37083,0.74073 6.93312,2.83632 0.17643,0.23667 0.37117,0.58858 0.23926,0.85266 -2.51888,5.04279 -4.82835,10.25167 -8.08433,14.85309 -0.38135,0.53894 -1.06049,-0.78668 -1.59074,-1.18003 -0.8471,-0.89484 11.80791,-12.87463 12.65501,-11.97979 l 0,0 c -5.28928,-3.41774 0.0311,-0.2283 -7.68733,15.00439 -0.19853,0.39181 -0.65775,0.5901 -1.03378,0.8171 -2.57929,1.55696 -5.52361,1.94185 -8.48549,2.05768 -1.36919,10e-4 -2.73982,0.067 -4.10755,0.004 -4.81102,-0.22132 -9.75586,-1.25261 -13.90483,-3.79738 -0.55613,-0.34111 -1.05397,-0.76923 -1.58096,-1.15384 -1.1034,-0.51275 6.14793,-16.11714 7.25133,-15.60439 z"
       inkscape:connector-curvature="0" />
    <path
       style="fill:#381a07;fill-opacity:1;fill-rule:evenodd;stroke:#451a03;stroke-width:2;stroke-linejoin:miter;stroke-miterlimit:4;stroke-opacity:1;stroke-dasharray:none;stroke-dashoffset:0;opacity:1"
       id="path5355-7"
       d="m 204.959,274.0634 c 0.12423,-1.15111 0.68452,-5.91261 0.60618,-6.99714 -0.0716,-0.99066 -0.65419,-1.90166 -0.71302,-2.89315 -0.0588,-0.99017 0.43976,-1.96395 0.36612,-2.95312 -0.0472,-0.63365 -0.57925,-1.14584 -0.71744,-1.76603 -0.19915,-0.89377 -0.1899,-1.82151 -0.28485,-2.73227 0.16781,-3.65977 0.25394,-2.35916 -0.12754,-5.84135 -0.13433,-1.22619 -0.90426,-2.53288 -0.43739,-3.67464 1.69485,-4.1449 5.36642,-5.84896 9.0633,-7.45345 11.91483,-1.21425 13.63204,15.63587 1.71721,16.85012 l 0,0 c 0.45476,-0.28164 0.96505,-0.48891 1.36429,-0.84492 1.05477,-0.94056 2.76179,-3.53319 2.87613,-4.67843 0.0417,-0.41802 -1.04109,-0.3649 -1.26028,-0.007 -0.2783,0.45503 0.45423,3.49647 0.52665,3.84362 0.16054,1.89482 0.30549,3.79095 0.46621,5.68576 0.0787,0.92793 0.36844,1.85848 0.25183,2.78241 -0.14683,1.16342 -1.0705,2.19265 -1.02761,3.36451 0.0754,2.06017 2.23668,3.67036 2.01932,5.84569 1.03868,10.38677 -13.65044,11.85568 -14.68911,1.46891 z"
       inkscape:connector-curvature="0" />
    <path
       style="fill:#381a07;fill-opacity:1;fill-rule:evenodd;stroke:#451a03;stroke-width:2;stroke-linejoin:miter;stroke-miterlimit:4;stroke-opacity:1;stroke-dasharray:none;stroke-dashoffset:0;opacity:1"
       id="path5357-2"
       d="m 268.38485,259.68882 c 0.70491,0.62274 2.39056,2.16651 3.14805,2.58109 1.01469,0.55535 2.21346,0.7418 3.19558,1.35291 0.94633,0.58884 1.74642,1.39594 2.51671,2.20149 3.25991,3.40915 0.0204,1.2332 3.49644,3.23825 1.65313,1.18194 1.47423,1.94439 2.77137,0.8792 0.0989,-0.0812 0.0678,-0.39861 0.18089,-0.33873 0.34213,0.18108 0.45062,0.66411 0.78901,0.85209 0.10756,0.0597 -0.002,-0.30317 0.11119,-0.35201 0.34735,-0.15021 0.74722,-0.12051 1.12083,-0.18076 1.17101,0.58644 2.43961,1.00904 3.51304,1.75933 0.90746,0.63427 1.32899,1.92621 2.35502,2.34221 0.66785,0.27078 -0.53002,-1.44192 -1.12768,-1.8446 -1.313,-0.88463 -2.84955,-1.41974 -4.3704,-1.85972 -1.70369,-0.49288 -2.09799,0.75452 -1.65406,-0.2985 1.65949,0.65767 0.81853,0.61426 2.52187,0.14838 11.46171,-0.21813 11.7702,15.99117 0.30849,16.2093 l 0,0 c -0.12356,1.16373 0.029,1.34417 -0.27288,0.65422 -0.32173,-0.0385 -0.64207,-0.13981 -0.9652,-0.1156 -0.96573,0.0723 -1.92277,0.56773 -2.87716,0.40341 -0.86552,-0.14902 -7.58148,-1.09984 -5.82667,-4.69248 0.72322,-1.48065 1.07427,8.87318 4.37949,2.29309 -0.53874,1.96136 0.22382,0.2475 -1.60727,-0.32962 -0.60317,-0.1901 -1.27223,0.38377 -1.88404,0.22363 -2.85956,-0.74847 -4.04707,-3.5778 -6.42483,-5.02729 -7.80722,-5.46561 1.45756,1.51725 -3.43911,-3.44366 -0.3007,-0.30464 -0.79293,-0.32284 -1.18696,-0.49009 -1.62677,-0.69054 -3.21021,-1.4746 -5.00974,-1.61016 -10.29221,-4.41095 -4.05419,-18.96633 6.23802,-14.55538 z"
       inkscape:connector-curvature="0" />
    <path
       style="fill:#381a07;fill-opacity:1;fill-rule:evenodd;stroke:#451a03;stroke-width:2;stroke-linejoin:miter;stroke-miterlimit:4;stroke-opacity:1;stroke-dasharray:none;stroke-dashoffset:0;opacity:1"
       id="path5359-8"
       d="m 302.36306,265.43511 c 0.71429,0.5239 1.30223,1.29239 2.14286,1.57171 0.17577,0.0584 2.41402,-0.5263 2.85714,-0.40766 1.8821,0.50389 3.63005,1.45745 5.52701,1.90213 0.20571,0.0482 -0.22583,-3.32228 0.19251,0.77271 1.13408,0.60727 2.04302,-0.70425 3.08292,-0.58924 0.86093,0.0952 3.72324,3.02814 3.96354,3.18823 0.88665,0.59064 1.92572,0.91195 2.88858,1.36793 0.68642,0.71967 1.37283,1.43935 2.05925,2.15902 0.78165,0.60099 1.64622,1.10731 2.34496,1.80297 0.62636,0.6236 0.8376,1.66192 1.5942,2.11883 5.21889,3.15169 1.03586,-0.16115 3.72166,0.0332 0.39572,0.0286 0.6847,0.40102 1.02706,0.60154 0.44365,0.0981 0.94857,0.0489 1.33096,0.29436 6.97189,4.47489 -2.08112,0.68541 -1.48639,-0.99632 0.52026,-1.47111 3.26789,0.75817 4.24384,1.97569 1.55706,1.94248 1.74236,4.67539 2.86765,6.89606 0.68182,1.34551 -1.02068,-2.83888 -1.53102,-4.25832 0.83945,1.79505 0.34933,0.64711 1.30309,3.51052 2.09715,11.40456 -14.03132,14.37039 -16.12848,2.96583 l 0,0 c -0.6466,2.51025 -1.29065,2.17019 0.5772,2.1073 -0.7862,-1.41105 -2.91629,-5.74914 -2.3586,-4.23317 0.77963,2.11933 1.52619,4.37465 3.03027,6.05902 0.92311,1.03376 4.7395,2.66622 3.82844,1.62182 -1.15794,-1.32741 -3.24217,-1.46131 -4.63222,-2.54324 -0.58726,-0.45709 3.93069,0.72365 1.92269,1.13468 -3.26194,-4.47609 1.64135,1.89327 -3.55668,-3.28076 -0.61075,-0.60794 -0.78167,-1.59624 -1.44987,-2.1404 -0.75659,-0.61615 -1.87076,-0.64408 -2.66509,-1.21074 -4.3315,-3.08995 1.08209,-1.27349 -4.40432,-2.58422 -0.22607,-0.34942 -0.26623,-0.98932 -0.67821,-1.04825 -1.09336,-0.15639 -0.19149,2.25088 -1.88326,0.83192 -0.29099,-0.24407 0.0708,-0.84342 -0.18483,-1.12431 -0.81843,-0.89923 -2.82524,-0.91465 -3.78032,-1.03923 -1.01746,-0.18899 -2.07187,-0.23601 -3.0524,-0.56697 -0.81395,-0.27474 -3.12372,-1.18364 -2.2658,-1.2281 1.55957,-0.0808 3.00065,0.9276 4.55166,1.10965 0.45074,0.0529 -0.7306,-0.56685 -1.16071,-0.71164 -1.6021,-0.53932 -2.1862,-0.14103 -3.83929,0.22738 -11.51869,0 -11.51869,-16.2899 0,-16.2899 z"
       inkscape:connector-curvature="0" />
    <path
       style="fill:#2b1806;fill-opacity:1;fill-rule:evenodd;stroke:#451a03;stroke-width:2;stroke-linejoin:miter;stroke-miterlimit:4;stroke-opacity:1;stroke-dasharray:none;stroke-dashoffset:0;opacity:1"
       id="path5361-8"
       d="m 206.82735,276.15768 c 1.62442,0.6885 4.22244,1.8783 5.89286,2.14867 1.23413,0.19976 2.50138,0.004 3.75,0.0671 1.40144,0.0707 2.80181,0.17844 4.19642,0.33365 7.01278,0.78047 1.96535,0.85278 9.40866,0.18989 5.55768,0.847 3.81114,0.45074 9.14558,1.7638 1.14128,0.28093 2.24926,0.72221 3.41341,0.88411 1.55754,0.21661 4.13105,-0.17167 5.74051,0.11142 0.82691,0.14545 1.59338,0.52996 2.39007,0.79494 0.64873,-0.29708 1.23569,-0.95686 1.94618,-0.89125 1.61685,0.14933 1.53055,1.29388 0.71899,1.31494 -0.0694,0.002 0.16574,-0.0647 0.15959,-0.13391 -0.0154,-0.17325 -0.37266,-0.54688 -0.21383,-0.47598 0.91532,0.40859 1.72394,1.02324 2.58591,1.53487 2.21871,0.44019 2.81275,0.37824 4.63367,1.24188 0.50904,0.24142 0.92402,0.69184 1.46842,0.83688 0.25014,0.0666 0.47897,-0.28549 0.73536,-0.24974 1.44917,0.20205 0.75563,1.03774 1.3475,-0.0287 -0.16056,-0.35116 -0.1735,-1.28609 -0.4817,-1.05347 -0.34454,0.26005 0.11867,0.85512 0.17801,1.28269 -1.1239,0.20091 -2.23402,0.5069 -3.3717,0.60275 -0.15552,0.0131 0.17728,-0.27413 0.31617,-0.34532 3.08424,-1.58092 2.37583,-1.39855 3.98396,-1.74804 -4.54295,1.766 -1.1668,-0.64652 -0.93821,-0.39564 0.72292,0.79338 -3.72221,2.90266 1.44983,-0.12343 11.19612,-4.87351 18.08831,10.9602 6.89218,15.83371 l 0,0 c 0.48939,-0.25362 1.29711,-1.28488 1.46817,-0.76088 0.18438,0.56481 -0.73566,1.15176 -1.32869,1.18814 -0.3775,0.0231 -0.21774,-0.7244 -0.32661,-1.0866 -0.74167,0.4858 -1.48335,0.97159 -2.22502,1.45739 -0.21031,0.0804 -0.82967,0.34721 -0.63094,0.24134 0.8872,-0.47264 1.734,-1.06509 2.6999,-1.34354 0.23526,-0.0678 -0.10384,0.55321 -0.32473,0.65882 -4.19581,2.00601 -4.04215,1.61016 -7.5426,1.92083 -0.82059,-0.40363 -2.96514,-1.52251 -3.89901,-1.73564 -1.06726,-0.24358 -2.17174,-0.27753 -3.25761,-0.41629 -0.71201,-0.25875 -1.40708,-0.56993 -2.13601,-0.77624 -1.98616,-0.56215 -1.18331,0.17489 -1.89181,-0.57891 -0.0648,0.10543 -0.0723,0.29677 -0.19452,0.31631 -2.31794,0.37056 -2.43715,0.31129 -4.31106,-0.44671 -0.67387,-0.27258 -1.40975,-0.45064 -1.99378,-0.88343 -0.2828,-0.20957 -0.18268,-0.74475 -0.47265,-0.94427 -0.27113,-0.18655 -0.65703,-0.0394 -0.98554,-0.059 -0.24069,-2.29762 0.32309,-1.06036 -2.10604,-2.22374 -0.96489,-0.46211 -1.8204,-1.15751 -2.82738,-1.51883 -1.23226,-0.44215 -2.57558,-0.49522 -3.83,-0.86994 -2.30152,-0.6875 -4.38588,-2.02605 -6.82139,-2.32285 -5.4264,0.12933 -2.92039,0.10008 -8.57124,0.10493 -2.16709,0.002 -5.7553,-0.14014 -7.94642,0.37576 -1.17964,0.27775 -2.244,0.92069 -3.39286,1.30644 -0.81805,0.27468 -1.66667,0.44814 -2.5,0.67221 -11.15183,0 -11.15183,-15.77107 0,-15.77107 z"
       inkscape:connector-curvature="0" />
    <path
       style="fill:#381a07;fill-opacity:0.65898615;fill-rule:evenodd;stroke:#451a03;stroke-width:2;stroke-linejoin:miter;stroke-miterlimit:4;stroke-opacity:1;stroke-dasharray:none;stroke-dashoffset:0;opacity:1"
       id="path5363-5"
       d="m 237.18449,265.93679 c 3.17931,0.22995 2.09382,0.0825 5.53572,0.65382 1.19218,0.19788 2.36835,0.50939 3.57142,0.62368 1.27431,0.12104 2.55982,0.0422 3.83929,0.0803 1.28015,0.0381 2.56127,0.23125 3.83929,0.14819 1.01423,-0.0659 1.99404,-0.39474 2.99107,-0.5921 1.53412,2.38862 5.53106,-1.0388 7.16291,0.72063 4.16697,4.49276 6.13983,8.34181 1.86046,12.68891 -0.72995,0.7415 0.54569,-2.01003 0.88975,-2.992 0.41691,-1.18991 0.92732,-2.34498 1.39099,-3.51747 -0.72059,-1.09749 -1.58664,-2.11223 -2.16176,-3.29248 -0.18973,-0.38935 -0.42637,-1.5501 -0.0747,-1.29721 0.65394,0.47029 0.79533,1.40095 1.19299,2.10143 7.52185,9.54696 -5.9796,20.18447 -13.50145,10.6375 l 0,0 c 0.29265,0.36757 1.31595,1.27272 0.87796,1.10269 -2.33817,-0.90765 -2.51085,-4.14847 -3.09701,-5.959 -0.0785,-1.41168 -0.60211,-2.86952 -0.23555,-4.23505 0.32923,-1.22649 2.91803,-4.1576 2.20616,-3.10597 -0.79083,1.16827 -2.70867,2.07042 -2.44307,3.45596 0.55478,2.89407 2.59639,5.37557 4.55763,7.57489 0.41395,0.46421 1.43454,0.0639 1.81638,-0.4271 0.28883,-0.37138 -0.29443,-0.89369 -0.44165,-1.34053 -0.99703,-0.0309 -1.99997,0.0202 -2.99107,-0.0927 -1.29162,-0.14702 -2.54007,-0.7288 -3.83929,-0.68481 -1.31719,0.0446 -2.5386,0.73219 -3.83929,0.94478 -1.17815,0.19255 -2.39223,0.0804 -3.57142,0.26642 -2.40637,0.37971 -3.36704,0.91279 -5.53572,1.80717 -10.79749,0 -10.79749,-15.26996 0,-15.26996 z"
       inkscape:connector-curvature="0" />
    <path
       style="fill:#2b1806;fill-opacity:1;fill-rule:evenodd;stroke:#451a03;stroke-width:2;stroke-linejoin:miter;stroke-miterlimit:4;stroke-opacity:1;stroke-dasharray:none;stroke-dashoffset:0;opacity:1"
       id="path5365-7"
       d="m 292.86192,280.57644 c 0.74633,0.74905 1.35753,1.66309 2.23899,2.24715 0.5726,0.37941 1.32288,0.37054 1.98538,0.55195 0.70763,0.19376 1.40243,0.44635 2.12499,0.57356 0.42719,0.0752 0.90764,-0.15336 1.30093,0.0296 1.15286,0.53625 -1.62365,1.06131 0.78521,0.37614 2.32061,0.79125 -0.39639,-0.19304 3.00709,1.36654 0.22058,0.10108 0.51387,0.0489 0.69779,0.2072 0.31739,0.27307 0.41825,0.7429 0.73058,1.02174 0.76393,0.68201 1.73546,1.11463 2.46612,1.83218 0.19873,0.19516 -0.53992,-0.13711 -0.80989,-0.20566 0.37601,0.37973 2.13425,2.11237 2.31399,2.4945 0.0744,0.15814 -0.55714,-0.006 -0.49964,0.15885 0.22178,0.63646 0.82539,1.07429 1.13749,1.67167 0.24675,0.47231 0.34986,1.0067 0.52478,1.51005 0.30514,0.55339 0.61027,1.10677 0.91541,1.66016 -1.68134,1.59311 0.74716,0.71252 0.63456,1.1294 -0.0734,0.27184 -0.83822,0.22643 -0.70053,0.47203 0.43413,0.77437 1.65747,0.96134 1.96996,1.79228 0.19802,0.52656 -0.6322,0.97 -0.72232,1.5253 -0.0935,0.57613 0.12824,1.16027 0.19236,1.74041 -0.0765,0.16669 -0.25911,0.31905 -0.22957,0.50006 0.1546,0.94709 1.00587,1.67867 1.19371,2.61972 0.0917,0.45928 -0.0747,0.93376 -0.12186,1.39972 -0.27774,2.74537 -0.50009,1.52168 -3.23468,6.0654 -2.0569,1.60869 -4.17066,3.17752 -6.81638,3.63224 -0.5789,0.0995 -1.19691,0.12506 -1.76182,-0.0359 -9.45944,-2.69553 3.90555,-0.10923 -6.04891,-1.83547 -8.90081,0.0259 -8.93749,-12.56171 -0.0367,-12.58764 l 0,0 c 4.33424,-2.40703 0.92734,-0.93557 4.17896,-1.6418 0.3772,-0.0819 0.76652,-0.58568 1.09362,-0.38074 0.25964,0.16268 -0.0677,0.70666 -0.33537,0.85583 -0.62649,0.34918 -1.64441,-1.23115 -2.12541,0.33533 -0.56713,1.60174 -1.13426,3.20348 -1.70139,4.80523 -0.17748,-0.033 -0.44013,-0.25418 -0.53245,-0.099 -0.23514,0.39512 1.06575,0.64357 1.35017,0.2823 0.1501,-0.19065 -0.33177,-0.36034 -0.44982,-0.57235 -0.26733,-0.48012 -0.46664,-0.99507 -0.69997,-1.49261 0.0646,-0.0181 0.19773,0.0127 0.19371,-0.0543 -0.009,-0.15724 -0.26347,-0.56913 -0.22199,-0.41717 0.0891,0.32644 0.31035,1.28033 0.36653,0.94665 0.15386,-0.91399 -1.02168,-2.44593 -0.72644,-3.45644 -0.27032,-0.32039 -0.318,-0.44454 -0.83931,-0.57409 -0.15242,-0.0379 -0.36993,0.16746 -0.46897,0.0456 -0.4136,-0.50903 -0.75625,-1.10666 -0.91104,-1.74401 -0.0426,-0.17547 0.40472,0.007 0.52235,0.14353 0.11148,0.12983 0.0269,0.34118 0.0403,0.51177 -0.38239,-0.39544 -1.56438,-0.82781 -1.14717,-1.18631 0.42863,-0.36831 1.01588,0.5541 1.37749,0.9884 0.0939,0.11272 -0.1119,0.33768 -0.2573,0.35697 -0.57719,0.0766 -1.789,-1.67973 0.97243,-0.62993 0.28302,0.10759 -0.34266,0.4993 -0.51399,0.74896 -1.37924,-3.38108 0.98507,1.59463 -1.90367,-1.32856 -0.39677,-0.4015 -0.0855,-1.19035 -0.42922,-1.63814 -0.24421,-0.31817 -0.8028,-0.17486 -1.13493,-0.39972 -3.21955,-2.17983 -0.39587,-1.41981 -3.73584,-1.91351 -10.18585,-3.39528 -5.38419,-17.80025 4.80166,-14.40496 z"
       inkscape:connector-curvature="0" />
    <path
       style="fill:#381a07;fill-opacity:1;fill-rule:evenodd;stroke:#451a03;stroke-width:2;stroke-linejoin:miter;stroke-miterlimit:4;stroke-opacity:1;stroke-dasharray:none;stroke-dashoffset:0;opacity:1"
       id="path5367-1"
       d="m 194.70466,274.40414 c 0.99554,3.78472 0.34316,2.29803 2.41381,5.86229 0.50403,0.8676 0.8147,1.9015 1.55788,2.57563 0.57917,0.52536 1.46354,0.5512 2.19472,0.82834 0.41394,0.15689 0.81788,0.60502 1.24063,0.47374 0.26271,-0.0816 -0.1049,-0.5401 -0.15734,-0.81015 7.86863,1.48159 4.42561,2.79296 5.58007,11.82692 0.0998,0.78079 0.54562,-1.6924 0.12553,-2.35807 -8.17161,-12.94878 -7.60975,-5.67866 -7.93001,-10.26198 1.07937,0.25999 2.15873,0.51998 3.23809,0.77997 0.32406,-0.19827 0.59958,-0.66892 0.97218,-0.59481 0.25424,0.0506 -0.43492,0.57828 -0.23371,0.7417 0.4815,0.3911 1.2298,0.24698 1.78689,0.51984 0.10448,0.0512 -0.1513,0.21469 -0.26722,0.22448 -0.15263,0.0129 -0.28573,-0.11048 -0.4286,-0.16572 1.71352,0.54659 1.31375,0.8837 2.3581,0.23916 0.0117,-0.007 -0.0238,-0.0481 -0.0135,-0.039 0.17342,0.15145 0.27762,0.4449 0.50653,0.46961 0.33816,0.0365 0.64809,-0.20667 0.97213,-0.31 0.79952,0.0968 1.59905,0.19368 2.39857,0.29053 0.49912,-0.26385 0.93374,-0.75903 1.49737,-0.79155 0.24456,-0.0141 -0.37248,0.57699 -0.17006,0.71495 0.61541,2.9648 1.50445,-0.0752 2.16904,0.21875 0.11319,0.0501 -0.41199,0.10359 -0.32069,0.18715 0.50651,0.46358 1.15749,0.73895 1.73624,1.10842 1.16704,-1.09999 -0.0578,-0.2051 2.39624,-0.42774 0.0952,-0.009 0.0446,-0.18587 0.0668,-0.2788 0.43892,0.19783 0.89276,0.36542 1.31676,0.59349 0.51899,0.27916 0.94342,0.75146 1.50655,0.92516 0.50421,0.15554 1.05515,0.0185 1.58273,0.0278 0.0447,2.03467 -0.26293,-0.237 0.83486,1.09549 0.13822,0.16777 -0.86302,-0.0351 -0.64841,-0.0697 0.41486,-0.0668 0.92389,0.2229 1.2603,-0.0289 0.24289,-0.18181 -0.29842,-0.98998 -0.006,-0.91019 1.27427,0.34735 2.33169,1.24134 3.49753,1.86201 -2.61839,-1.48351 0.3137,0.0646 0.12464,0.53553 -0.24893,0.62007 -8.43089,-2.83433 2.11236,1.19233 8.69678,9.24048 -4.37123,21.53959 -13.06801,12.2991 l 0,0 c 0.94968,0.5389 2.0339,0.89017 2.84905,1.6167 0.57195,0.50977 -1.40744,-0.6074 -2.09527,-0.94487 -0.23566,-0.11562 0.94965,0.43176 0.73668,0.2783 -0.45352,-0.32676 -0.98007,-0.53783 -1.47011,-0.80675 1.02363,0.36992 2.00129,0.90821 3.07089,1.10974 0.32075,0.0604 -0.54253,-0.39079 -0.7175,-0.66633 -0.0495,-0.078 0.23136,-0.20715 0.14389,-0.23697 -0.71998,-0.24545 -1.49369,-0.29203 -2.23206,-0.4749 -0.5534,-0.13707 -2.116,-0.72755 -2.51813,-0.87412 -0.27803,-0.64713 -0.0815,0.0465 0.0875,-0.37231 0.15115,-0.37442 -1.44285,-0.45297 -1.49796,-0.44167 -0.38764,0.0795 1.88823,2.0573 -0.88405,0.79233 0.23489,-0.20364 0.97163,-0.45163 0.70467,-0.61092 -0.49744,-0.2968 -1.17822,0.14438 -1.73775,-0.006 -0.39682,-0.10629 -0.60023,-0.61452 -0.99545,-0.7266 -0.15595,-0.0442 0.26856,0.47263 0.10647,0.4745 -0.7522,0.009 -1.24044,-0.26858 -1.80855,-0.56947 0.16827,-0.0989 0.69804,-0.32449 0.50483,-0.29674 -1.07017,0.15375 -1.80784,0.86894 -2.97746,0.63636 -0.64082,-0.12743 -1.10639,-0.74713 -1.74193,-0.89873 -0.31446,-0.075 -1.67384,0.46805 -0.73001,0.10431 -4.59155,-0.17061 0.4628,-0.0235 -3.62358,-0.0309 -0.24854,-4.5e-4 0.821,0.19287 0.74435,-0.0435 -0.12538,-0.38674 -0.62169,-0.53995 -0.98961,-0.71294 -0.15547,-0.0731 -0.6652,-0.0788 -0.51538,0.005 0.66532,0.3734 1.40606,0.59275 2.10909,0.88912 -4.42912,-2.86388 -6.61746,-4.15404 -10.7863,-10.53094 -0.49915,-0.76353 1.69903,-2.80083 1.94707,-1.923 2.35603,8.33823 -3.70173,9.14851 3.74502,10.53641 0.44947,0.0838 -0.73955,-0.53782 -1.10933,-0.80673 -1.63218,-1.25693 -3.75095,-2.56799 -4.86277,-4.43594 -1.59436,-2.67867 -0.91604,-3.79911 -2.97523,-6.33186 -0.51267,-0.63057 -4.65621,-3.71921 -5.41181,-4.29258 -5.62474,-8.99958 7.10259,-16.95417 12.72733,-7.95458 z"
       inkscape:connector-curvature="0" />
    <path
       style="fill:#381a07;fill-opacity:1;fill-rule:evenodd;stroke:#451a03;stroke-width:2;stroke-linejoin:miter;stroke-miterlimit:4;stroke-opacity:1;stroke-dasharray:none;stroke-dashoffset:0;opacity:1"
       id="path5369-5"
       d="m 213.61657,301.05291 c 2.73982,2.90254 0.60409,0.99937 4.71809,3.475 1.00691,0.60592 2.00308,1.23304 2.95909,1.91645 0.9992,0.71428 1.82606,1.67747 2.90062,2.27238 1.00905,0.55863 2.44986,0.22717 3.48234,0.10805 1.49619,0.55988 3.03276,-0.11819 4.5362,0.0438 0.6979,0.0752 1.30045,0.62179 2.00164,0.65412 0.29531,0.0136 0.61877,-0.24843 0.71181,-0.52903 0.0576,-0.1737 -0.24115,-0.31065 -0.41865,-0.35514 -0.62406,-0.15644 -1.27756,-0.15345 -1.91634,-0.23018 -1.913,-0.9747 -3.41938,-1.64121 5.22366,-0.57669 0.40396,0.0497 0.42544,0.70717 0.52768,1.10113 0.0271,0.10451 -0.27796,0.26584 -0.17042,0.27546 0.16734,0.015 0.29112,-0.16777 0.43668,-0.25166 0.28043,0.14389 0.56086,0.28778 0.84129,0.43167 1.9014,-1.00695 0.19177,-0.47137 2.46347,0.17838 0.43298,0.12384 0.89998,0.0353 1.34992,0.0542 0.46176,0.0194 1.46471,0.51588 1.38518,0.0606 -0.25967,-1.48639 -2.42576,-0.42103 -2.87418,-0.27342 -1.20915,0.22954 1.03572,-1.68022 0.63756,-1.37115 -7.47791,5.80461 2.3142,-0.93746 -2.96049,10.24117 -0.8165,1.73041 -1.31461,-3.85789 -0.76108,-5.68945 0.59003,-1.9523 2.60286,-3.14064 3.90429,-4.71097 0.91667,-0.75537 1.83334,-1.51074 2.75001,-2.26611 12.04809,-3.79916 17.42092,13.23941 5.37283,17.03857 l 0,0 c 0.73681,-0.45705 1.47362,-0.9141 2.21043,-1.37116 1.03259,-1.52352 2.67843,-2.77849 3.09777,-4.57057 0.41227,-1.76185 -0.35935,-7.1353 -0.77095,-5.37329 -0.59774,2.55881 0.88827,5.34905 0.18517,7.88094 -0.3905,1.40616 -2.14814,1.97628 -3.20268,2.9851 -0.15738,0.15056 0.71779,-0.47311 0.50968,-0.40887 -0.60395,0.18644 -1.15089,0.52297 -1.72633,0.78445 -0.90501,0.65753 -1.65084,1.62778 -2.71502,1.9726 -1.18731,0.38472 -2.49485,0.0811 -3.74233,0.11976 -1.58246,0.0491 -3.16814,0.0857 -4.74469,-0.10062 -1.69686,0.9911 -1.51023,1.25939 -3.59871,0.90023 -0.70296,-0.12089 -1.3275,-0.59845 -2.03896,-0.64923 -0.28776,-0.0205 -1.02715,0.45326 -0.73867,0.45101 1.55867,-0.0122 3.11304,-0.2298 4.65128,-0.48163 0.37059,-0.0607 -0.74831,-0.0641 -1.12247,-0.0961 -0.89044,0.15385 -1.76824,0.49316 -2.67133,0.46154 -0.75964,-0.0266 -1.46641,-0.40231 -2.19105,-0.63178 -1.05769,-0.33494 -2.11996,-0.66946 -3.13616,-1.11468 -4.23044,-1.85343 2.69268,0.88179 -3.67463,-1.55734 -1.1731,-0.28311 -2.39733,-0.40492 -3.5193,-0.84933 -1.40166,-0.55519 -2.68345,-1.37729 -3.99207,-2.1259 -2.17504,-1.24426 -2.96413,-2.20813 -5.42332,-2.80288 -0.81311,-0.19665 -1.67418,-0.0629 -2.50395,-0.16926 -0.8112,-0.10396 -1.60659,-0.30699 -2.40989,-0.46049 -10.175,-4.36071 -4.00802,-18.75033 6.16698,-14.38962 z"
       inkscape:connector-curvature="0" />
    <path
       style="fill:#381a07;fill-opacity:1;fill-rule:evenodd;stroke:#451a03;stroke-width:2;stroke-linejoin:miter;stroke-miterlimit:4;stroke-opacity:1;stroke-dasharray:none;stroke-dashoffset:0;opacity:1"
       id="path5375-1"
       d="m 326.1323,252.20346 c 0.94663,0.99346 2.91111,3.44293 4.52447,3.75824 0.89324,0.17458 1.78139,-0.43752 2.69122,-0.46095 1.78924,-0.0461 2.23009,0.40549 3.76416,0.83268 0.98226,0.27353 1.97808,0.49581 2.96712,0.74372 0.38303,0.22699 0.77889,0.4336 1.14908,0.68097 1.26518,0.84545 1.27531,1.27931 2.42527,1.42126 0.61816,0.0763 1.38914,-0.24535 1.86165,0.16046 0.92002,0.79015 1.23478,2.08991 1.92205,3.08913 0.69406,1.00909 1.4784,1.953 2.2176,2.92951 0.29042,2.13651 -0.10197,1.78811 0.86875,3.02891 0.36821,0.47066 0.70701,0.97303 1.14544,1.3791 1.67398,1.5504 1.73468,0.19151 2.79501,3.26684 0.39009,1.13139 0.36507,2.36548 0.5476,3.54822 0.29991,0.47054 0.92561,1.969 0.89972,1.41161 -0.0726,-1.5633 -0.63036,-3.06821 -1.04678,-4.57678 -0.13446,-0.48712 -0.83741,-1.83841 -0.60079,-1.39189 0.61506,1.16069 1.50785,2.24366 1.73752,3.53701 -0.67495,3.30896 -0.92285,1.97503 -0.18339,4.06618 0.0388,0.14764 -0.006,0.35128 0.11631,0.44291 0.16996,0.12759 0.41791,0.0776 0.62709,0.11512 0.039,0.007 -0.0777,-0.0157 -0.11659,-0.0235 -1.0032,2.20129 -1.28704,4.90536 -3.00958,6.60386 -1.27911,1.26127 -3.45558,0.98318 -5.18336,1.47476 -11.36033,2.6666 -15.13147,-13.39933 -3.77114,-16.06593 l 0,0 c -1.19392,0.66901 -2.75168,0.91891 -3.58175,2.00702 -1.29756,1.70093 -1.57556,3.98026 -2.46865,5.92428 -0.10523,0.22905 -0.0519,-0.54355 0.0918,-0.75062 0.77764,-1.12018 1.16645,-0.16925 0.63088,-1.05608 0.26336,0.80273 0.30074,1.67444 0.61442,2.45887 0.39937,0.99872 1.37224,1.79472 1.486,2.86429 0.0651,0.61216 -1.13288,-0.70598 -1.31885,-1.29283 -0.45843,-1.44661 -1.23467,-6.89851 -0.51131,-4.52374 0.16858,0.5942 0.14708,1.27976 0.50575,1.7826 0.13209,0.18519 0.69326,0.0901 0.66871,-0.13603 -0.0624,-0.57508 -0.57741,-1.00281 -0.84784,-1.51417 -1.11743,-2.11294 -2.08762,-4.4003 -3.93191,-6.00907 0.19875,0.1243 1.69229,0.99839 1.78505,1.29145 0.0874,0.27627 -0.47567,-0.35027 -0.75291,-0.43459 -0.83665,-0.25444 -1.7385,-0.27352 -2.56011,-0.57299 -0.64806,-0.2362 -0.65737,-1.47999 -1.65159,-1.24664 0.24377,-0.38693 1.10702,-0.90001 0.73133,-1.16078 -0.53526,-0.37154 -1.29526,0.49287 -1.92647,0.33121 -0.74618,-0.19111 -1.24036,-0.91801 -1.90234,-1.31182 -0.58084,-0.34553 -5.11994,-2.66546 -5.53101,-2.75119 -1.13024,-0.2357 -2.30831,0.0609 -3.46246,0.0913 -9.8726,-3.94903 -4.28781,-17.911 5.58478,-13.96196 z"
       inkscape:connector-curvature="0" />
    <path
       style="fill:#381a07;fill-opacity:1;fill-rule:evenodd;stroke:#451a03;stroke-width:2;stroke-linejoin:miter;stroke-miterlimit:4;stroke-opacity:1;stroke-dasharray:none;stroke-dashoffset:0;opacity:1"
       id="path5377-5"
       d="m 325.2707,294.57423 c 0.74621,0.43563 1.44359,0.96851 2.23865,1.30688 5.56583,2.36878 -2.17319,-1.97894 3.67658,1.65883 0.69551,0.43252 1.62015,0.58823 2.12541,1.23284 1.10036,1.40385 -0.61397,2.37624 0.83863,1.32012 -0.0616,0.0719 -0.23038,0.13274 -0.1848,0.21574 0.33443,0.42483 0.66885,0.84966 1.00328,1.27449 0.20106,0.11558 0.45773,0.1661 0.60318,0.34673 0.5576,0.69249 1.96467,2.96431 1.46873,2.22641 -0.69981,-1.04124 -1.38692,-2.09098 -2.08038,-3.13647 9.27288,8.55958 -2.83219,21.6734 -12.10507,13.11383 l 0,0 c -0.67572,-1.2111 -1.55599,-2.32893 -2.02715,-3.63329 -0.20561,-0.5692 0.93153,0.8181 1.20521,1.35787 0.10713,0.21128 -0.46884,-0.12842 -0.65567,-0.27404 -0.0776,-0.0605 0.19667,-0.005 0.295,-0.007 -0.17343,-0.45823 -0.34686,-0.91645 -0.52029,-1.37468 -0.40907,-0.33383 -0.8143,-0.67243 -1.22722,-1.0015 -0.10732,-0.0855 0.21408,0.17275 0.3102,0.27069 0.25912,0.26404 0.38482,0.7969 0.75437,0.81405 0.29156,0.0135 0.51899,-0.47861 0.43707,-0.75875 -0.37892,-1.29569 -1.23416,-0.98384 -2.1502,-0.96559 -9.89037,-4.23873 -3.8959,-18.22582 5.99447,-13.98709 z"
       inkscape:connector-curvature="0" />
    <path
       style="fill:#2b1100;fill-opacity:1;fill-rule:evenodd;stroke:#451a03;stroke-width:2;stroke-linejoin:miter;stroke-miterlimit:4;stroke-opacity:1;stroke-dasharray:none;stroke-dashoffset:0"
       id="path5359-8-7"
       d="m 215.0155,414.93938 c -0.66945,-0.5801 -1.19312,-1.39374 -2.00833,-1.74032 -0.17045,-0.0725 -2.44875,0.32877 -2.88079,0.17459 -1.83503,-0.65488 -3.49989,-1.74707 -5.35453,-2.34413 -0.20112,-0.0647 -0.0444,3.32965 -0.12921,-0.78578 -1.08109,-0.69725 -2.0934,0.53623 -3.12055,0.33726 -0.85037,-0.16471 -3.46538,-3.32014 -3.6919,-3.49919 -0.83583,-0.66061 -1.84541,-1.06513 -2.76812,-1.5977 -0.62579,-0.77297 -1.25157,-1.54595 -1.87736,-2.31892 -0.73033,-0.66241 -1.55099,-1.23718 -2.191,-1.98722 -0.57372,-0.67235 -0.70006,-1.72438 -1.41711,-2.24115 -4.94607,-3.56458 -1.04551,0.0766 -3.7067,-0.33493 -0.3921,-0.0606 -0.64992,-0.45524 -0.97489,-0.68286 -0.43423,-0.13376 -0.94148,-0.12567 -1.3027,-0.40134 -6.58599,-5.0256 2.12985,-0.51436 1.40069,1.11359 -0.63786,1.42407 -3.19564,-1.02071 -4.06963,-2.31337 -1.39438,-2.06237 -1.35742,-4.80131 -2.2989,-7.10593 -0.57044,-1.39637 0.78708,2.91231 1.18061,4.36847 -0.6911,-1.85722 -0.29569,-0.67331 -1.01408,-3.60464 -1.16527,-11.53708 15.1506,-13.18505 16.31589,-1.64797 l 0,0 c 0.84807,-2.44953 1.46241,-2.05836 -0.40438,-2.14717 0.66916,1.47017 2.4404,5.96673 2.0075,4.41052 -0.60518,-2.17558 -1.16636,-4.48402 -2.52888,-6.28483 -0.83622,-1.10522 -4.50764,-3.04183 -3.68429,-1.92698 1.04647,1.41695 3.11297,1.71945 4.41069,2.91056 0.54826,0.50321 -3.85905,-1.04007 -1.82432,-1.28689 2.88816,4.72591 -1.48239,-2.02015 3.27887,3.55842 0.55943,0.65547 0.64964,1.65438 1.2715,2.25094 0.70413,0.67548 1.81236,0.79369 2.55811,1.4229 4.06662,3.43108 -1.18181,1.18153 4.18022,2.93292 0.19699,0.3666 0.18512,1.00765 0.59096,1.0998 1.07707,0.24455 0.37342,-2.22793 1.94453,-0.67643 0.27023,0.26686 -0.13897,0.83489 0.093,1.13559 0.7428,0.96265 2.74175,1.14078 3.68358,1.34241 0.99878,0.27089 2.0459,0.40327 2.99636,0.81267 0.78899,0.33985 3.01743,1.43309 2.15873,1.40782 -1.56098,-0.046 -2.91553,-1.16791 -4.44666,-1.47516 -0.44497,-0.0893 0.68221,0.62424 1.09916,0.80344 1.55309,0.66748 2.16756,0.31787 3.84509,0.0847 11.48074,0.93422 10.15955,17.17045 -1.32119,16.23623 z"
       inkscape:connector-curvature="0" />
    <path
       style="fill:#381a07;fill-opacity:1;fill-rule:evenodd;stroke:#451a03;stroke-width:2;stroke-linejoin:miter;stroke-miterlimit:4;stroke-opacity:1;stroke-dasharray:none;stroke-dashoffset:0;opacity:1"
       id="path5345-3"
       d="m 188.65306,374.95839 c 3.58185,1.08922 2.61043,0.99923 6.04747,1.33303 0.49533,0.0481 1.01594,0.22295 1.49111,0.075 0.18232,-0.0568 0.2526,-0.4718 0.0866,-0.56625 -0.73427,-0.41796 -1.162,1.2984 -0.38094,-0.64779 1.53921,-0.82444 2.84577,1.28541 4.32351,1.11101 0.31193,-0.0368 0.38147,-0.67065 0.69382,-0.63759 0.53942,0.0571 0.87766,0.66051 1.38311,0.85738 0.22145,0.0863 0.47451,-0.0276 0.71177,-0.0414 0.50877,0.2597 1.01754,0.5194 1.52631,0.7791 0.60418,-0.75542 0.22569,-0.50163 1.82378,-0.31552 0.0488,0.006 0.0516,0.11242 0.10044,0.10772 0.04,-0.004 0.012,-0.0794 0.0179,-0.1191 10.61167,0.39557 10.05224,15.40273 -0.55942,15.00716 l 0,0 c -0.56467,-0.11166 -1.12376,-0.25663 -1.694,-0.33497 -0.57038,-0.0784 -1.1943,0.096 -1.72197,-0.13432 -0.19737,-0.0861 0.13811,-0.55808 -0.0597,-0.64328 -0.48238,-0.2078 -1.04969,-0.0405 -1.57453,-0.0607 -1.10802,1.21276 -1.37503,-0.1509 -2.04288,-0.26911 -0.34488,-0.061 -0.74047,0.27398 -1.04573,0.10228 -0.19958,-0.11226 -0.74593,-2.35472 0.64731,-0.22995 -2.98852,0.71034 1.35743,-0.10694 -3.4249,-0.49404 -0.70415,-0.057 -1.39986,0.61404 -2.07807,0.41627 -0.62876,-0.18335 -0.8259,-1.03876 -1.35942,-1.41865 -1.25638,-0.89462 -1.56852,-0.63441 -2.91167,-0.4861 -9.46824,0 -9.46824,-13.39011 0,-13.39011 z"
       inkscape:connector-curvature="0" />
    <path
       style="fill:#381a07;fill-opacity:1;fill-rule:evenodd;stroke:#451a03;stroke-width:2;stroke-linejoin:miter;stroke-miterlimit:4;stroke-opacity:1;stroke-dasharray:none;stroke-dashoffset:0;opacity:1"
       id="path5345-0"
       d="m 249.0102,393.88696 c 3.58185,1.08922 2.61043,0.99923 6.04747,1.33303 0.49533,0.0481 1.01594,0.22295 1.49111,0.075 0.18232,-0.0568 0.2526,-0.4718 0.0866,-0.56625 -0.73427,-0.41796 -1.162,1.2984 -0.38094,-0.64779 1.53921,-0.82444 2.84577,1.28541 4.32351,1.11101 0.31193,-0.0368 0.38147,-0.67065 0.69382,-0.63759 0.53942,0.0571 0.87766,0.66051 1.38311,0.85738 0.22145,0.0863 0.47451,-0.0276 0.71177,-0.0414 0.50877,0.2597 1.01754,0.5194 1.52631,0.7791 0.60418,-0.75542 0.22569,-0.50163 1.82378,-0.31552 0.0488,0.006 0.0516,0.11242 0.10044,0.10772 0.04,-0.004 0.012,-0.0794 0.0179,-0.1191 10.61167,0.39557 10.05224,15.40273 -0.55942,15.00716 l 0,0 c -0.56467,-0.11166 -1.12376,-0.25663 -1.694,-0.33497 -0.57038,-0.0784 -1.1943,0.096 -1.72197,-0.13432 -0.19737,-0.0861 0.13811,-0.55808 -0.0597,-0.64328 -0.48238,-0.2078 -1.04969,-0.0405 -1.57453,-0.0607 -1.10802,1.21276 -1.37503,-0.1509 -2.04288,-0.26911 -0.34488,-0.061 -0.74047,0.27398 -1.04573,0.10228 -0.19958,-0.11226 -0.74593,-2.35472 0.64731,-0.22995 -2.98852,0.71034 1.35743,-0.10694 -3.4249,-0.49404 -0.70415,-0.057 -1.39986,0.61404 -2.07807,0.41627 -0.62876,-0.18335 -0.8259,-1.03876 -1.35942,-1.41865 -1.25638,-0.89462 -1.56852,-0.63441 -2.91167,-0.4861 -9.46824,0 -9.46824,-13.39011 0,-13.39011 z"
       inkscape:connector-curvature="0" />
  </g>
</svg>
